AnekLatin-CondensedThin.ufo
<glyph name="dollar" format="2">
  <advance width="525"/>
  <unicode hex="0024"/>
  <anchor x="248" y="0" name="bottom"/>
  <anchor x="248" y="1278" name="top"/>
  <outline>
    <contour>
      <point x="276" y="1278" type="line"/>
      <point x="276" y="1454" type="line"/>
      <point x="241" y="1454" type="line"/>
      <point x="241" y="1278" type="line"/>
    </contour>
    <contour>
      <point x="276" y="-185" type="line"/>
      <point x="276" y="14" type="line"/>
      <point x="241" y="14" type="line"/>
      <point x="241" y="-185" type="line"/>
    </contour>
    <component base="S"/>
  </outline>
</glyph>
<glyph name="parenright" format="2">
  <advance width="340"/>
  <unicode hex="0029"/>
  <outline>
    <contour>
      <point x="181" y="716" type="curve" smooth="yes"/>
      <point x="181" y="396" type="line" smooth="yes"/>
      <point x="181" y="110"/>
      <point x="162" y="-52"/>
      <point x="40" y="-241" type="curve"/>
      <point x="84" y="-241" type="line"/>
      <point x="197" y="-63"/>
      <point x="219" y="96"/>
      <point x="219" y="390" type="curve" smooth="yes"/>
      <point x="219" y="721" type="line" smooth="yes"/>
      <point x="219" y="1016"/>
      <point x="197" y="1174"/>
      <point x="84" y="1352" type="curve"/>
      <point x="40" y="1352" type="line"/>
      <point x="162" y="1163"/>
      <point x="181" y="1001"/>
    </contour>
  </outline>
</glyph>
<glyph name="logicalnot" format="2">
  <advance width="652"/>
  <unicode hex="00AC"/>
  <outline>
    <contour>
      <point x="547" y="318" type="line"/>
      <point x="547" y="636" type="line"/>
      <point x="512" y="636" type="line"/>
      <point x="512" y="318" type="line"/>
    </contour>
    <contour>
      <point x="61" y="620" type="line"/>
      <point x="547" y="620" type="line"/>
      <point x="547" y="653" type="line"/>
      <point x="61" y="653" type="line"/>
    </contour>
  </outline>
</glyph>
<glyph name="divide" format="2">
  <advance width="608"/>
  <unicode hex="00F7"/>
  <outline>
    <contour>
      <point x="61" y="620" type="line"/>
      <point x="547" y="620" type="line"/>
      <point x="547" y="653" type="line"/>
      <point x="61" y="653" type="line"/>
    </contour>
    <contour>
      <point x="304" y="326" type="curve" smooth="yes"/>
      <point x="326" y="326"/>
      <point x="334" y="344"/>
      <point x="334" y="385" type="curve" smooth="yes"/>
      <point x="334" y="403" type="line" smooth="yes"/>
      <point x="334" y="443"/>
      <point x="326" y="462"/>
      <point x="304" y="462" type="curve" smooth="yes"/>
      <point x="282" y="462"/>
      <point x="275" y="443"/>
      <point x="275" y="403" type="curve" smooth="yes"/>
      <point x="275" y="385" type="line" smooth="yes"/>
      <point x="275" y="344"/>
      <point x="282" y="326"/>
    </contour>
    <contour>
      <point x="304" y="816" type="curve" smooth="yes"/>
      <point x="326" y="816"/>
      <point x="334" y="834"/>
      <point x="334" y="875" type="curve" smooth="yes"/>
      <point x="334" y="893" type="line" smooth="yes"/>
      <point x="334" y="933"/>
      <point x="326" y="952"/>
      <point x="304" y="952" type="curve" smooth="yes"/>
      <point x="282" y="952"/>
      <point x="275" y="933"/>
      <point x="275" y="893" type="curve" smooth="yes"/>
      <point x="275" y="875" type="line" smooth="yes"/>
      <point x="275" y="834"/>
      <point x="282" y="816"/>
    </contour>
  </outline>
</glyph>
<glyph name="dcroat" format="2">
  <advance width="617"/>
  <unicode hex="0111"/>
  <anchor x="309" y="0" name="bottom"/>
  <anchor x="309" y="495" name="center"/>
  <anchor x="309" y="1334" name="top"/>
  <anchor x="657" y="1334" name="topright"/>
  <outline>
    <contour>
      <point x="248" y="1150" type="line"/>
      <point x="606" y="1150" type="line"/>
      <point x="606" y="1182" type="line"/>
      <point x="248" y="1182" type="line"/>
    </contour>
    <component base="d"/>
  </outline>
</glyph>
<glyph name="eogonek" format="2">
  <advance width="553"/>
  <unicode hex="0119"/>
  <anchor x="300" y="0" name="bottom"/>
  <anchor x="458" y="10" name="ogonek"/>
  <anchor x="285" y="990" name="top"/>
  <outline>
    <contour>
      <point x="380" y="-323" type="curve" smooth="yes"/>
      <point x="409" y="-323"/>
      <point x="443" y="-316"/>
      <point x="461" y="-305" type="curve"/>
      <point x="467" y="-272" type="line"/>
      <point x="438" y="-285"/>
      <point x="413" y="-290"/>
      <point x="384" y="-290" type="curve" smooth="yes"/>
      <point x="326" y="-290"/>
      <point x="288" y="-256"/>
      <point x="288" y="-199" type="curve" smooth="yes"/>
      <point x="288" y="-198" type="line" smooth="yes"/>
      <point x="288" y="-123"/>
      <point x="337" y="-59"/>
      <point x="411" y="12" type="curve"/>
      <point x="411" y="18" type="line"/>
      <point x="374" y="9" type="line"/>
      <point x="374" y="9" type="line"/>
      <point x="312" y="-49"/>
      <point x="253" y="-117"/>
      <point x="253" y="-203" type="curve" smooth="yes"/>
      <point x="253" y="-204" type="line" smooth="yes"/>
      <point x="253" y="-274"/>
      <point x="300" y="-323"/>
    </contour>
    <component base="e"/>
  </outline>
</glyph>
<glyph name="Hbar" format="2">
  <advance width="696"/>
  <unicode hex="0126"/>
  <anchor x="348" y="0" name="bottom"/>
  <anchor x="348" y="639" name="center"/>
  <anchor x="348" y="1278" name="top"/>
  <anchor x="20" y="1278" name="topleft"/>
  <outline>
    <contour>
      <point x="28" y="959" type="line"/>
      <point x="668" y="959" type="line"/>
      <point x="668" y="992" type="line"/>
      <point x="28" y="992" type="line"/>
    </contour>
    <component base="H"/>
  </outline>
</glyph>
<glyph name="hbar" format="2">
  <advance width="623"/>
  <unicode hex="0127"/>
  <anchor x="312" y="0" name="bottom"/>
  <anchor x="312" y="667" name="center"/>
  <anchor x="129" y="1334" name="top"/>
  <outline>
    <contour>
      <point x="11" y="1150" type="line"/>
      <point x="359" y="1150" type="line"/>
      <point x="359" y="1182" type="line"/>
      <point x="11" y="1182" type="line"/>
    </contour>
    <component base="h"/>
  </outline>
</glyph>
<glyph name="kgreenlandic" format="2">
  <advance width="549"/>
  <unicode hex="0138"/>
  <anchor x="275" y="0" name="bottom"/>
  <anchor x="275" y="990" name="top"/>
  <outline>
    <contour>
      <point x="480" y="0" type="line"/>
      <point x="519" y="0" type="line"/>
      <point x="218" y="515" type="line"/>
      <point x="218" y="492" type="line"/>
      <point x="502" y="990" type="line"/>
      <point x="463" y="990" type="line"/>
      <point x="193" y="518" type="line"/>
      <point x="132" y="518" type="line"/>
      <point x="132" y="485" type="line"/>
      <point x="193" y="485" type="line"/>
    </contour>
    <contour>
      <point x="110" y="0" type="line"/>
      <point x="147" y="0" type="line"/>
      <point x="147" y="990" type="line"/>
      <point x="110" y="990" type="line"/>
    </contour>
  </outline>
</glyph>
<glyph name="Lslash" format="2">
  <advance width="520"/>
  <unicode hex="0141"/>
  <anchor x="302" y="0" name="bottom"/>
  <anchor x="255" y="667" name="center"/>
  <anchor x="141" y="1278" name="top"/>
  <anchor x="377" y="1278" name="topright"/>
  <outline>
    <contour>
      <point x="364" y="889" type="line"/>
      <point x="14" y="680" type="line"/>
      <point x="14" y="643" type="line"/>
      <point x="364" y="852" type="line"/>
    </contour>
    <component base="L"/>
  </outline>
</glyph>
<glyph name="lslash" format="2">
  <advance width="302"/>
  <unicode hex="0142"/>
  <anchor x="152" y="0" name="bottom"/>
  <anchor x="152" y="667" name="center"/>
  <anchor x="152" y="1334" name="top"/>
  <anchor x="320" y="1334" name="topright"/>
  <outline>
    <contour>
      <point x="-22" y="612" type="line"/>
      <point x="324" y="944" type="line"/>
      <point x="324" y="989" type="line"/>
      <point x="-22" y="657" type="line"/>
    </contour>
    <component base="l" xOffset="17"/>
  </outline>
</glyph>
<glyph name="Eng" format="2">
  <advance width="696"/>
  <unicode hex="014A"/>
  <outline>
    <contour>
      <point x="121" y="0" type="line"/>
      <point x="160" y="0" type="line"/>
      <point x="160" y="643" type="line"/>
      <point x="156" y="1245" type="line"/>
      <point x="167" y="1245" type="line"/>
      <point x="501" y="0" type="line"/>
      <point x="555" y="0" type="line"/>
      <point x="575" y="0" type="line"/>
      <point x="575" y="1278" type="line"/>
      <point x="536" y="1278" type="line"/>
      <point x="536" y="635" type="line"/>
      <point x="540" y="33" type="line"/>
      <point x="529" y="33" type="line"/>
      <point x="194" y="1278" type="line"/>
      <point x="121" y="1278" type="line"/>
    </contour>
    <contour>
      <point x="416" y="-355" type="curve" smooth="yes"/>
      <point x="531" y="-355"/>
      <point x="575" y="-285"/>
      <point x="575" y="-167" type="curve" smooth="yes"/>
      <point x="575" y="16" type="line"/>
      <point x="540" y="16" type="line"/>
      <point x="540" y="-166" type="line" smooth="yes"/>
      <point x="540" y="-265"/>
      <point x="510" y="-320"/>
      <point x="418" y="-320" type="curve" smooth="yes"/>
      <point x="379" y="-320"/>
      <point x="348" y="-311"/>
      <point x="315" y="-293" type="curve"/>
      <point x="321" y="-331" type="line"/>
      <point x="344" y="-346"/>
      <point x="381" y="-355"/>
    </contour>
  </outline>
</glyph>
<glyph name="tcaron" format="2">
  <advance width="439"/>
  <unicode hex="0165"/>
  <anchor x="276" y="0" name="bottom"/>
  <anchor x="220" y="495" name="center"/>
  <anchor x="159" y="1233" name="top"/>
  <anchor x="335" y="1402" name="topright"/>
  <outline>
    <contour>
      <point x="369" y="1402" type="curve"/>
      <point x="335" y="1402" type="line"/>
      <point x="340" y="1371"/>
      <point x="344" y="1341"/>
      <point x="344" y="1313" type="curve" smooth="yes"/>
      <point x="344" y="1212"/>
      <point x="317" y="1134"/>
      <point x="272" y="1067" type="curve"/>
      <point x="294" y="1052" type="line"/>
      <point x="353" y="1128"/>
      <point x="377" y="1211"/>
      <point x="377" y="1314" type="curve" smooth="yes"/>
      <point x="377" y="1351"/>
      <point x="371" y="1382"/>
    </contour>
    <component base="t"/>
  </outline>
</glyph>
<glyph name="Tbar" format="2">
  <advance width="533"/>
  <unicode hex="0166"/>
  <anchor x="267" y="0" name="bottom"/>
  <anchor x="267" y="639" name="center"/>
  <anchor x="267" y="1278" name="top"/>
  <outline>
    <contour>
      <point x="88" y="647" type="line"/>
      <point x="454" y="647" type="line"/>
      <point x="454" y="681" type="line"/>
      <point x="88" y="681" type="line"/>
    </contour>
    <component base="T"/>
  </outline>
</glyph>
<glyph name="tbar" format="2">
  <advance width="459"/>
  <unicode hex="0167"/>
  <outline>
    <contour>
      <point x="303" y="-9" type="curve" smooth="yes"/>
      <point x="351" y="-9"/>
      <point x="401" y="7"/>
      <point x="432" y="29" type="curve"/>
      <point x="437" y="68" type="line"/>
      <point x="399" y="42"/>
      <point x="355" y="26"/>
      <point x="305" y="26" type="curve" smooth="yes"/>
      <point x="213" y="26"/>
      <point x="176" y="72"/>
      <point x="176" y="175" type="curve" smooth="yes"/>
      <point x="176" y="951" type="line"/>
      <point x="139" y="951" type="line"/>
      <point x="139" y="169" type="line" smooth="yes"/>
      <point x="139" y="52"/>
      <point x="192" y="-9"/>
    </contour>
    <contour>
      <point x="24" y="516" type="line"/>
      <point x="390" y="516" type="line"/>
      <point x="390" y="547" type="line"/>
      <point x="24" y="547" type="line"/>
    </contour>
    <contour>
      <point x="20" y="940" type="line"/>
      <point x="405" y="940" type="line"/>
      <point x="410" y="972" type="line"/>
      <point x="20" y="972" type="line"/>
    </contour>
    <contour>
      <point x="139" y="960" type="line"/>
      <point x="174" y="960" type="line"/>
      <point x="178" y="1266" type="line"/>
      <point x="139" y="1251" type="line"/>
    </contour>
  </outline>
</glyph>
<glyph name="Uogonek" format="2">
  <advance width="686"/>
  <unicode hex="0172"/>
  <anchor x="343" y="0" name="bottom"/>
  <anchor x="491" y="10" name="ogonek"/>
  <anchor x="343" y="1278" name="top"/>
  <anchor x="665" y="1278" name="topright"/>
  <outline>
    <contour>
      <point x="413" y="-323" type="curve" smooth="yes"/>
      <point x="439" y="-323"/>
      <point x="470" y="-316"/>
      <point x="486" y="-305" type="curve"/>
      <point x="492" y="-272" type="line"/>
      <point x="466" y="-285"/>
      <point x="443" y="-290"/>
      <point x="417" y="-290" type="curve" smooth="yes"/>
      <point x="364" y="-290"/>
      <point x="329" y="-260"/>
      <point x="329" y="-202" type="curve" smooth="yes"/>
      <point x="329" y="-201" type="line" smooth="yes"/>
      <point x="329" y="-129"/>
      <point x="367" y="-68"/>
      <point x="425" y="0" type="curve"/>
      <point x="425" y="6" type="line"/>
      <point x="394" y="3" type="line"/>
      <point x="394" y="3" type="line"/>
      <point x="340" y="-58"/>
      <point x="294" y="-123"/>
      <point x="294" y="-206" type="curve" smooth="yes"/>
      <point x="294" y="-207" type="line" smooth="yes"/>
      <point x="294" y="-278"/>
      <point x="338" y="-323"/>
    </contour>
    <component base="U"/>
  </outline>
</glyph>
<glyph name="Schwa" format="2">
  <advance width="624"/>
  <unicode hex="018F"/>
  <anchor x="312" y="0" name="bottom"/>
  <anchor x="312" y="1278" name="top"/>
  <outline>
    <contour>
      <point x="315" y="-15" type="curve" smooth="yes"/>
      <point x="458" y="-15"/>
      <point x="524" y="80"/>
      <point x="524" y="255" type="curve" smooth="yes"/>
      <point x="524" y="982" type="line" smooth="yes"/>
      <point x="524" y="1183"/>
      <point x="456" y="1293"/>
      <point x="294" y="1293" type="curve" smooth="yes"/>
      <point x="208" y="1293"/>
      <point x="149" y="1261"/>
      <point x="108" y="1223" type="curve"/>
      <point x="102" y="1181" type="line"/>
      <point x="154" y="1225"/>
      <point x="211" y="1257"/>
      <point x="294" y="1257" type="curve" smooth="yes"/>
      <point x="430" y="1257"/>
      <point x="485" y="1160"/>
      <point x="485" y="982" type="curve" smooth="yes"/>
      <point x="485" y="257" type="line" smooth="yes"/>
      <point x="485" y="105"/>
      <point x="434" y="21"/>
      <point x="311" y="21" type="curve" smooth="yes"/>
      <point x="200" y="21"/>
      <point x="127" y="105"/>
      <point x="127" y="257" type="curve"/>
      <point x="127" y="681" type="line"/>
      <point x="110" y="666" type="line"/>
      <point x="498" y="666" type="line"/>
      <point x="498" y="699" type="line"/>
      <point x="94" y="699" type="line"/>
      <point x="90" y="642"/>
      <point x="90" y="600"/>
      <point x="90" y="550" type="curve"/>
      <point x="90" y="255" type="line"/>
      <point x="90" y="80"/>
      <point x="171" y="-15"/>
    </contour>
  </outline>
</glyph>
<glyph name="florin" format="2">
  <advance width="516"/>
  <unicode hex="0192"/>
  <outline>
    <contour>
      <point x="60" y="940" type="line"/>
      <point x="456" y="940" type="line"/>
      <point x="458" y="972" type="line"/>
      <point x="62" y="972" type="line"/>
    </contour>
    <contour>
      <point x="496" y="1281" type="curve"/>
      <point x="494" y="1316" type="line"/>
      <point x="460" y="1331"/>
      <point x="411" y="1347"/>
      <point x="356" y="1347" type="curve" smooth="yes"/>
      <point x="250" y="1347"/>
      <point x="180" y="1296"/>
      <point x="170" y="1153" type="curve" smooth="yes"/>
      <point x="67" y="-350" type="line"/>
      <point x="105" y="-350" type="line"/>
      <point x="207" y="1146" type="line" smooth="yes"/>
      <point x="215" y="1264"/>
      <point x="263" y="1314"/>
      <point x="360" y="1314" type="curve" smooth="yes"/>
      <point x="405" y="1314"/>
      <point x="456" y="1299"/>
    </contour>
  </outline>
</glyph>
<glyph name="Oogonek" format="2">
  <advance width="664"/>
  <unicode hex="01EA"/>
  <anchor x="332" y="0" name="bottom"/>
  <anchor x="332" y="639" name="center"/>
  <anchor x="481" y="10" name="ogonek"/>
  <anchor x="332" y="1278" name="top"/>
  <anchor x="20" y="1278" name="topleft"/>
  <anchor x="568" y="1278" name="topright"/>
  <outline>
    <contour>
      <point x="403" y="-323" type="curve" smooth="yes"/>
      <point x="429" y="-323"/>
      <point x="460" y="-316"/>
      <point x="476" y="-305" type="curve"/>
      <point x="482" y="-272" type="line"/>
      <point x="456" y="-285"/>
      <point x="433" y="-290"/>
      <point x="407" y="-290" type="curve" smooth="yes"/>
      <point x="354" y="-290"/>
      <point x="319" y="-260"/>
      <point x="319" y="-202" type="curve" smooth="yes"/>
      <point x="319" y="-201" type="line" smooth="yes"/>
      <point x="319" y="-129"/>
      <point x="357" y="-68"/>
      <point x="415" y="0" type="curve"/>
      <point x="415" y="6" type="line"/>
      <point x="384" y="3" type="line"/>
      <point x="384" y="3" type="line"/>
      <point x="330" y="-58"/>
      <point x="284" y="-123"/>
      <point x="284" y="-206" type="curve" smooth="yes"/>
      <point x="284" y="-207" type="line" smooth="yes"/>
      <point x="284" y="-278"/>
      <point x="328" y="-323"/>
    </contour>
    <component base="O"/>
  </outline>
</glyph>
<glyph name="oogonek" format="2">
  <advance width="598"/>
  <unicode hex="01EB"/>
  <anchor x="299" y="0" name="bottom"/>
  <anchor x="299" y="495" name="center"/>
  <anchor x="427" y="0" name="ogonek"/>
  <anchor x="299" y="990" name="top"/>
  <anchor x="515" y="990" name="topright"/>
  <outline>
    <contour>
      <point x="364" y="-323" type="curve" smooth="yes"/>
      <point x="390" y="-323"/>
      <point x="421" y="-316"/>
      <point x="437" y="-305" type="curve"/>
      <point x="443" y="-272" type="line"/>
      <point x="417" y="-285"/>
      <point x="394" y="-290"/>
      <point x="368" y="-290" type="curve" smooth="yes"/>
      <point x="315" y="-290"/>
      <point x="280" y="-260"/>
      <point x="280" y="-202" type="curve" smooth="yes"/>
      <point x="280" y="-201" type="line" smooth="yes"/>
      <point x="280" y="-129"/>
      <point x="318" y="-68"/>
      <point x="376" y="0" type="curve"/>
      <point x="376" y="6" type="line"/>
      <point x="345" y="3" type="line"/>
      <point x="345" y="3" type="line"/>
      <point x="291" y="-58"/>
      <point x="245" y="-123"/>
      <point x="245" y="-206" type="curve" smooth="yes"/>
      <point x="245" y="-207" type="line" smooth="yes"/>
      <point x="245" y="-278"/>
      <point x="289" y="-323"/>
    </contour>
    <component base="o"/>
  </outline>
</glyph>
<glyph name="Odieresismacron" format="2">
  <advance width="664"/>
  <unicode hex="022A"/>
  <anchor x="332" y="0" name="bottom"/>
  <anchor x="332" y="639" name="center"/>
  <anchor x="481" y="10" name="ogonek"/>
  <anchor x="332" y="1536" name="top"/>
  <anchor x="20" y="1278" name="topleft"/>
  <anchor x="568" y="1278" name="topright"/>
  <outline>
    <contour>
      <point x="173" y="1740" type="line"/>
      <point x="490" y="1740" type="line"/>
      <point x="490" y="1771" type="line"/>
      <point x="173" y="1771" type="line"/>
    </contour>
    <component base="O"/>
    <component base="dieresiscomb.case" xOffset="111"/>
  </outline>
</glyph>
<glyph name="odieresismacron" format="2">
  <advance width="598"/>
  <unicode hex="022B"/>
  <anchor x="300" y="1546" name="top"/>
  <anchor x="299" y="0" name="bottom"/>
  <anchor x="299" y="495" name="center"/>
  <anchor x="427" y="0" name="ogonek"/>
  <anchor x="515" y="990" name="topright"/>
  <outline>
    <contour>
      <point x="141" y="1486" type="line"/>
      <point x="458" y="1486" type="line"/>
      <point x="458" y="1517" type="line"/>
      <point x="141" y="1517" type="line"/>
    </contour>
    <component base="o"/>
    <component base="dieresiscomb" xOffset="78"/>
  </outline>
</glyph>
<glyph name="Otildemacron" format="2">
  <advance width="664"/>
  <unicode hex="022C"/>
  <anchor x="331" y="1798" name="top"/>
  <anchor x="332" y="0" name="bottom"/>
  <anchor x="332" y="639" name="center"/>
  <anchor x="481" y="10" name="ogonek"/>
  <anchor x="20" y="1278" name="topleft"/>
  <anchor x="568" y="1278" name="topright"/>
  <outline>
    <contour>
      <point x="173" y="1733" type="line"/>
      <point x="490" y="1733" type="line"/>
      <point x="490" y="1764" type="line"/>
      <point x="173" y="1764" type="line"/>
    </contour>
    <component base="O"/>
    <component base="tildecomb.case" xOffset="61"/>
  </outline>
</glyph>
<glyph name="otildemacron" format="2">
  <advance width="598"/>
  <unicode hex="022D"/>
  <anchor x="300" y="1536" name="top"/>
  <anchor x="299" y="0" name="bottom"/>
  <anchor x="299" y="495" name="center"/>
  <anchor x="427" y="0" name="ogonek"/>
  <anchor x="515" y="990" name="topright"/>
  <outline>
    <contour>
      <point x="141" y="1476" type="line"/>
      <point x="458" y="1476" type="line"/>
      <point x="458" y="1507" type="line"/>
      <point x="141" y="1507" type="line"/>
    </contour>
    <component base="o"/>
    <component base="tildecomb" xOffset="29"/>
  </outline>
</glyph>
<glyph name="Odotaccentmacron" format="2">
  <advance width="664"/>
  <unicode hex="0230"/>
  <anchor x="332" y="0" name="bottom"/>
  <anchor x="332" y="639" name="center"/>
  <anchor x="481" y="10" name="ogonek"/>
  <anchor x="332" y="1536" name="top"/>
  <anchor x="20" y="1278" name="topleft"/>
  <anchor x="568" y="1278" name="topright"/>
  <outline>
    <contour>
      <point x="173" y="1740" type="line"/>
      <point x="490" y="1740" type="line"/>
      <point x="490" y="1771" type="line"/>
      <point x="173" y="1771" type="line"/>
    </contour>
    <component base="O"/>
    <component base="dotaccentcomb.case" xOffset="202"/>
  </outline>
</glyph>
<glyph name="jdotless" format="2">
  <advance width="275"/>
  <unicode hex="0237"/>
  <anchor x="138" y="-350" name="bottom"/>
  <anchor x="138" y="990" name="top"/>
  <outline>
    <contour>
      <point x="122" y="234" type="line"/>
      <point x="159" y="233" type="line"/>
      <point x="159" y="990" type="line"/>
      <point x="122" y="990" type="line"/>
    </contour>
    <component base="jbottom"/>
  </outline>
</glyph>
<glyph name="schwa" format="2">
  <advance width="556"/>
  <unicode hex="0259"/>
  <outline>
    <contour>
      <point x="269" y="-13" type="curve" smooth="yes"/>
      <point x="399" y="-13"/>
      <point x="466" y="76"/>
      <point x="466" y="241" type="curve" smooth="yes"/>
      <point x="466" y="756" type="line" smooth="yes"/>
      <point x="466" y="918"/>
      <point x="405" y="1003"/>
      <point x="273" y="1003" type="curve" smooth="yes"/>
      <point x="197" y="1003"/>
      <point x="130" y="969"/>
      <point x="83" y="930" type="curve"/>
      <point x="78" y="887" type="line"/>
      <point x="137" y="935"/>
      <point x="202" y="968"/>
      <point x="273" y="968" type="curve" smooth="yes"/>
      <point x="380" y="968"/>
      <point x="429" y="897"/>
      <point x="429" y="754" type="curve" smooth="yes"/>
      <point x="429" y="521" type="line"/>
      <point x="429" y="510" type="line"/>
      <point x="429" y="241" type="line" smooth="yes"/>
      <point x="429" y="98"/>
      <point x="377" y="20"/>
      <point x="269" y="20" type="curve" smooth="yes"/>
      <point x="160" y="20"/>
      <point x="109" y="98"/>
      <point x="109" y="241" type="curve" smooth="yes"/>
      <point x="109" y="340"/>
      <point x="109" y="425"/>
      <point x="109" y="530" type="curve"/>
      <point x="76" y="530" type="line"/>
      <point x="72" y="473"/>
      <point x="72" y="431"/>
      <point x="72" y="381" type="curve" smooth="yes"/>
      <point x="72" y="241" type="line" smooth="yes"/>
      <point x="72" y="76"/>
      <point x="138" y="-13"/>
    </contour>
    <contour>
      <point x="90" y="497" type="line"/>
      <point x="449" y="497" type="line"/>
      <point x="449" y="530" type="line"/>
      <point x="90" y="530" type="line"/>
    </contour>
  </outline>
</glyph>
<glyph name="primemod" format="2">
  <advance width="204"/>
  <unicode hex="02B9"/>
  <outline>
    <contour>
      <point x="117" y="953" type="line"/>
      <point x="122" y="1334" type="line"/>
      <point x="82" y="1334" type="line"/>
      <point x="87" y="953" type="line"/>
    </contour>
  </outline>
</glyph>
<glyph name="doubleprimemod" format="2">
  <advance width="409"/>
  <unicode hex="02BA"/>
  <outline>
    <contour>
      <point x="292" y="953" type="line"/>
      <point x="322" y="953" type="line"/>
      <point x="327" y="1334" type="line"/>
      <point x="287" y="1334" type="line"/>
    </contour>
    <contour>
      <point x="87" y="953" type="line"/>
      <point x="117" y="953" type="line"/>
      <point x="122" y="1334" type="line"/>
      <point x="82" y="1334" type="line"/>
    </contour>
  </outline>
</glyph>
<glyph name="apostrophemod" format="2">
  <advance width="305"/>
  <unicode hex="02BC"/>
  <outline>
    <contour>
      <point x="197" y="1278" type="curve"/>
      <point x="163" y="1278" type="line"/>
      <point x="168" y="1243"/>
      <point x="172" y="1210"/>
      <point x="172" y="1179" type="curve" smooth="yes"/>
      <point x="172" y="1067"/>
      <point x="145" y="980"/>
      <point x="100" y="905" type="curve"/>
      <point x="122" y="889" type="line"/>
      <point x="181" y="973"/>
      <point x="205" y="1065"/>
      <point x="205" y="1180" type="curve" smooth="yes"/>
      <point x="205" y="1221"/>
      <point x="199" y="1256"/>
    </contour>
  </outline>
</glyph>
<glyph name="ringhalfright" format="2">
  <advance width="328"/>
  <unicode hex="02BE"/>
  <anchor x="100" y="990" name="_top"/>
  <anchor x="100" y="1323" name="top"/>
  <outline>
    <contour>
      <point x="100" y="1323" type="line"/>
      <point x="160" y="1323"/>
      <point x="195" y="1287"/>
      <point x="195" y="1227" type="curve" smooth="yes"/>
      <point x="195" y="1225" type="line" smooth="yes"/>
      <point x="195" y="1165"/>
      <point x="160" y="1129"/>
      <point x="100" y="1129" type="curve"/>
      <point x="100" y="1099" type="line"/>
      <point x="176" y="1099"/>
      <point x="228" y="1147"/>
      <point x="228" y="1225" type="curve" smooth="yes"/>
      <point x="228" y="1227" type="line" smooth="yes"/>
      <point x="228" y="1305"/>
      <point x="176" y="1353"/>
      <point x="100" y="1353" type="curve"/>
    </contour>
  </outline>
</glyph>
<glyph name="ringhalfleft" format="2">
  <advance width="328"/>
  <unicode hex="02BF"/>
  <anchor x="228" y="990" name="_top"/>
  <anchor x="228" y="1323" name="top"/>
  <outline>
    <contour>
      <point x="228" y="1323" type="curve"/>
      <point x="228" y="1353" type="line"/>
      <point x="152" y="1353"/>
      <point x="100" y="1305"/>
      <point x="100" y="1227" type="curve" smooth="yes"/>
      <point x="100" y="1225" type="line" smooth="yes"/>
      <point x="100" y="1147"/>
      <point x="152" y="1099"/>
      <point x="228" y="1099" type="curve"/>
      <point x="228" y="1129" type="line"/>
      <point x="168" y="1129"/>
      <point x="133" y="1165"/>
      <point x="133" y="1225" type="curve" smooth="yes"/>
      <point x="133" y="1227" type="line" smooth="yes"/>
      <point x="133" y="1287"/>
      <point x="168" y="1323"/>
    </contour>
  </outline>
</glyph>
<glyph name="verticallinemod" format="2">
  <advance width="231"/>
  <unicode hex="02C8"/>
  <anchor x="116" y="990" name="_top"/>
  <anchor x="116" y="1327" name="top"/>
  <outline>
    <contour>
      <point x="100" y="1108" type="line"/>
      <point x="131" y="1108" type="line"/>
      <point x="131" y="1359" type="line"/>
      <point x="100" y="1359" type="line"/>
    </contour>
  </outline>
</glyph>
<glyph name="fourthtonechinese" format="2">
  <advance width="364"/>
  <unicode hex="02CB"/>
  <anchor x="248" y="990" name="_top"/>
  <anchor x="182" y="1278" name="top"/>
  <outline>
    <contour>
      <point x="142" y="1331" type="line"/>
      <point x="100" y="1331" type="line"/>
      <point x="100" y="1331" type="line"/>
      <point x="231" y="1108" type="line"/>
      <point x="264" y="1108" type="line"/>
      <point x="264" y="1108" type="line"/>
    </contour>
  </outline>
</glyph>
<glyph name="brevecomb" format="2">
  <unicode hex="0306"/>
  <anchor x="239.5" y="990" name="_top"/>
  <anchor x="240" y="1271" name="top"/>
  <outline>
    <contour>
      <point x="239" y="1108" type="curve" smooth="yes"/>
      <point x="350" y="1108"/>
      <point x="379" y="1194"/>
      <point x="379" y="1324" type="curve"/>
      <point x="348" y="1324" type="line"/>
      <point x="348" y="1209"/>
      <point x="324" y="1139"/>
      <point x="239" y="1139" type="curve" smooth="yes"/>
      <point x="155" y="1139"/>
      <point x="131" y="1209"/>
      <point x="131" y="1324" type="curve"/>
      <point x="100" y="1324" type="line"/>
      <point x="100" y="1194"/>
      <point x="129" y="1108"/>
    </contour>
  </outline>
</glyph>
<glyph name="hookabovecomb" format="2">
  <unicode hex="0309"/>
  <anchor x="195.5" y="990" name="_top"/>
  <anchor x="196" y="1328" name="top"/>
  <outline>
    <contour>
      <point x="184" y="1105" type="curve"/>
      <point x="178" y="1133" type="line"/>
      <point x="237" y="1165"/>
      <point x="271" y="1195"/>
      <point x="271" y="1256" type="curve" smooth="yes"/>
      <point x="271" y="1311"/>
      <point x="246" y="1336"/>
      <point x="197" y="1336" type="curve" smooth="yes"/>
      <point x="167" y="1336"/>
      <point x="139" y="1323"/>
      <point x="114" y="1307" type="curve"/>
      <point x="119" y="1339" type="line"/>
      <point x="138" y="1354"/>
      <point x="169" y="1367"/>
      <point x="202" y="1367" type="curve" smooth="yes"/>
      <point x="267" y="1367"/>
      <point x="305" y="1329"/>
      <point x="305" y="1257" type="curve" smooth="yes"/>
      <point x="305" y="1182"/>
      <point x="262" y="1141"/>
    </contour>
  </outline>
</glyph>
<glyph name="hungarumlautcomb" format="2">
  <unicode hex="030B"/>
  <anchor x="201" y="990" name="_top"/>
  <anchor x="278" y="1268" name="top"/>
  <outline>
    <contour>
      <point x="379" y="1331" type="line"/>
      <point x="267" y="1108" type="line"/>
      <point x="267" y="1108" type="line"/>
      <point x="300" y="1108" type="line"/>
      <point x="421" y="1331" type="line"/>
      <point x="421" y="1331" type="line"/>
    </contour>
    <contour>
      <point x="209" y="1331" type="line"/>
      <point x="98" y="1108" type="line"/>
      <point x="98" y="1108" type="line"/>
      <point x="131" y="1108" type="line"/>
      <point x="252" y="1331" type="line"/>
      <point x="252" y="1331" type="line"/>
    </contour>
  </outline>
</glyph>
<glyph name="caroncomb" format="2">
  <unicode hex="030C"/>
  <anchor x="243.5" y="990" name="_top"/>
  <anchor x="244" y="1268" name="top"/>
  <outline>
    <contour>
      <point x="218" y="1108" type="line"/>
      <point x="269" y="1108" type="line"/>
      <point x="387" y="1331" type="line"/>
      <point x="387" y="1331" type="line"/>
      <point x="356" y="1331" type="line"/>
      <point x="247" y="1139" type="line"/>
      <point x="240" y="1139" type="line"/>
      <point x="131" y="1331" type="line"/>
      <point x="100" y="1331" type="line"/>
      <point x="100" y="1331" type="line"/>
    </contour>
  </outline>
</glyph>
<glyph name="dblgravecomb" format="2">
  <unicode hex="030F"/>
  <anchor x="331" y="990" name="_top"/>
  <anchor x="241" y="1268" name="top"/>
  <outline>
    <contour>
      <point x="150" y="1331" type="line"/>
      <point x="108" y="1331" type="line"/>
      <point x="108" y="1331" type="line"/>
      <point x="229" y="1108" type="line"/>
      <point x="262" y="1108" type="line"/>
      <point x="262" y="1108" type="line"/>
    </contour>
    <contour>
      <point x="320" y="1331" type="line"/>
      <point x="277" y="1331" type="line"/>
      <point x="277" y="1331" type="line"/>
      <point x="398" y="1108" type="line"/>
      <point x="431" y="1108" type="line"/>
      <point x="431" y="1108" type="line"/>
    </contour>
  </outline>
</glyph>
<glyph name="breveinvertedcomb" format="2">
  <unicode hex="0311"/>
  <anchor x="239.5" y="990" name="_top"/>
  <anchor x="240" y="1268" name="top"/>
  <outline>
    <contour>
      <point x="239" y="1324" type="curve" smooth="yes"/>
      <point x="129" y="1324"/>
      <point x="100" y="1238"/>
      <point x="100" y="1108" type="curve"/>
      <point x="131" y="1108" type="line"/>
      <point x="131" y="1223"/>
      <point x="155" y="1293"/>
      <point x="239" y="1293" type="curve" smooth="yes"/>
      <point x="324" y="1293"/>
      <point x="348" y="1223"/>
      <point x="348" y="1108" type="curve"/>
      <point x="379" y="1108" type="line"/>
      <point x="379" y="1238"/>
      <point x="350" y="1324"/>
    </contour>
  </outline>
</glyph>
<glyph name="commaturnedabovecomb" format="2">
  <unicode hex="0312"/>
  <anchor x="140" y="990" name="_top"/>
  <anchor x="140" y="1288" name="top"/>
  <outline>
    <contour>
      <point x="104" y="1108" type="curve"/>
      <point x="138" y="1108" type="line"/>
      <point x="136" y="1125"/>
      <point x="135" y="1142"/>
      <point x="135" y="1160" type="curve" smooth="yes"/>
      <point x="135" y="1227"/>
      <point x="150" y="1287"/>
      <point x="181" y="1337" type="curve"/>
      <point x="163" y="1359" type="line"/>
      <point x="118" y="1296"/>
      <point x="101" y="1235"/>
      <point x="101" y="1160" type="curve" smooth="yes"/>
      <point x="101" y="1137"/>
      <point x="103" y="1116"/>
    </contour>
  </outline>
</glyph>
<glyph name="horncomb" format="2">
  <unicode hex="031B"/>
  <anchor x="225" y="989" name="_topright"/>
  <anchor x="271" y="1234" name="topright"/>
  <outline>
    <contour>
      <point x="107" y="964" type="line"/>
      <point x="211" y="987"/>
      <point x="262" y="1044"/>
      <point x="262" y="1128" type="curve" smooth="yes"/>
      <point x="262" y="1169"/>
      <point x="255" y="1199"/>
      <point x="245" y="1232" type="curve"/>
      <point x="209" y="1232" type="line"/>
      <point x="219" y="1198"/>
      <point x="226" y="1166"/>
      <point x="226" y="1127" type="curve" smooth="yes"/>
      <point x="226" y="1050"/>
      <point x="180" y="1012"/>
      <point x="97" y="987" type="curve"/>
    </contour>
  </outline>
</glyph>
<glyph name="dotbelowcomb" format="2">
  <unicode hex="0323"/>
  <anchor x="129.5" y="0" name="_bottom"/>
  <anchor x="129.5" y="-316" name="bottom"/>
  <outline>
    <contour>
      <point x="129" y="-306" type="curve" smooth="yes"/>
      <point x="151" y="-306"/>
      <point x="159" y="-287"/>
      <point x="159" y="-247" type="curve" smooth="yes"/>
      <point x="159" y="-239" type="line" smooth="yes"/>
      <point x="159" y="-199"/>
      <point x="151" y="-181"/>
      <point x="129" y="-181" type="curve" smooth="yes"/>
      <point x="107" y="-181"/>
      <point x="100" y="-199"/>
      <point x="100" y="-239" type="curve" smooth="yes"/>
      <point x="100" y="-247" type="line" smooth="yes"/>
      <point x="100" y="-287"/>
      <point x="107" y="-306"/>
    </contour>
  </outline>
</glyph>
<glyph name="commaaccentcomb" format="2">
  <unicode hex="0326"/>
  <anchor x="136" y="0" name="_bottom"/>
  <anchor x="140" y="-363" name="bottom"/>
  <outline>
    <contour>
      <point x="156" y="-112" type="curve"/>
      <point x="122" y="-112" type="line"/>
      <point x="124" y="-129"/>
      <point x="125" y="-146"/>
      <point x="125" y="-164" type="curve" smooth="yes"/>
      <point x="125" y="-231"/>
      <point x="110" y="-291"/>
      <point x="79" y="-341" type="curve"/>
      <point x="97" y="-363" type="line"/>
      <point x="142" y="-300"/>
      <point x="159" y="-239"/>
      <point x="159" y="-164" type="curve" smooth="yes"/>
      <point x="159" y="-141"/>
      <point x="157" y="-120"/>
    </contour>
  </outline>
</glyph>
<glyph name="ogonekcomb" format="2">
  <unicode hex="0328"/>
  <anchor x="312" y="0" name="_ogonek"/>
  <outline>
    <contour>
      <point x="242" y="-323" type="curve" smooth="yes"/>
      <point x="266" y="-323"/>
      <point x="296" y="-316"/>
      <point x="312" y="-305" type="curve"/>
      <point x="318" y="-272" type="line"/>
      <point x="293" y="-285"/>
      <point x="270" y="-290"/>
      <point x="245" y="-290" type="curve" smooth="yes"/>
      <point x="195" y="-290"/>
      <point x="159" y="-258"/>
      <point x="159" y="-202" type="curve" smooth="yes"/>
      <point x="159" y="-201" type="line" smooth="yes"/>
      <point x="159" y="-129"/>
      <point x="201" y="-68"/>
      <point x="265" y="0" type="curve"/>
      <point x="265" y="6" type="line"/>
      <point x="234" y="3" type="line"/>
      <point x="234" y="3" type="line"/>
      <point x="175" y="-58"/>
      <point x="124" y="-125"/>
      <point x="124" y="-204" type="curve" smooth="yes"/>
      <point x="124" y="-205" type="line" smooth="yes"/>
      <point x="124" y="-280"/>
      <point x="169" y="-323"/>
    </contour>
  </outline>
</glyph>
<glyph name="strokeshortcomb" format="2">
  <unicode hex="0335"/>
  <anchor x="288" y="664" name="_center"/>
  <outline>
    <contour>
      <point x="122" y="647" type="line"/>
      <point x="454" y="647" type="line"/>
      <point x="454" y="681" type="line"/>
      <point x="122" y="681" type="line"/>
    </contour>
  </outline>
</glyph>
<glyph name="pi" format="2">
  <advance width="701"/>
  <unicode hex="03C0"/>
  <outline>
    <contour>
      <point x="36" y="940" type="line"/>
      <point x="660" y="940" type="line"/>
      <point x="665" y="972" type="line"/>
      <point x="36" y="972" type="line"/>
    </contour>
    <contour>
      <point x="195" y="0" type="line"/>
      <point x="232" y="0" type="line"/>
      <point x="232" y="951" type="line"/>
      <point x="195" y="951" type="line"/>
    </contour>
    <contour>
      <point x="474" y="0" type="line"/>
      <point x="511" y="0" type="line"/>
      <point x="511" y="951" type="line"/>
      <point x="474" y="951" type="line"/>
    </contour>
  </outline>
</glyph>
<glyph name="llinebelow" format="2">
  <advance width="269"/>
  <unicode hex="1E3B"/>
  <anchor x="134.84" y="-245" name="bottom"/>
  <anchor x="135" y="667" name="center"/>
  <anchor x="135" y="1334" name="top"/>
  <anchor x="303" y="1334" name="topright"/>
  <outline>
    <contour>
      <point x="-17" y="-244" type="line"/>
      <point x="287" y="-244" type="line"/>
      <point x="287" y="-213" type="line"/>
      <point x="-17" y="-213" type="line"/>
    </contour>
    <component base="l"/>
  </outline>
</glyph>
<glyph name="Otildedieresis" format="2">
  <advance width="664"/>
  <unicode hex="1E4E"/>
  <anchor x="332" y="1772" name="top"/>
  <anchor x="332" y="0" name="bottom"/>
  <anchor x="332" y="639" name="center"/>
  <anchor x="481" y="10" name="ogonek"/>
  <anchor x="20" y="1278" name="topleft"/>
  <anchor x="568" y="1278" name="topright"/>
  <outline>
    <contour>
      <point x="240" y="1695" type="curve" smooth="yes"/>
      <point x="262" y="1695"/>
      <point x="269" y="1714"/>
      <point x="269" y="1754" type="curve" smooth="yes"/>
      <point x="269" y="1762" type="line" smooth="yes"/>
      <point x="269" y="1802"/>
      <point x="262" y="1820"/>
      <point x="240" y="1820" type="curve" smooth="yes"/>
      <point x="218" y="1820"/>
      <point x="211" y="1802"/>
      <point x="211" y="1762" type="curve" smooth="yes"/>
      <point x="211" y="1754" type="line" smooth="yes"/>
      <point x="211" y="1714"/>
      <point x="218" y="1695"/>
    </contour>
    <contour>
      <point x="424" y="1695" type="curve" smooth="yes"/>
      <point x="446" y="1695"/>
      <point x="453" y="1714"/>
      <point x="453" y="1754" type="curve" smooth="yes"/>
      <point x="453" y="1762" type="line" smooth="yes"/>
      <point x="453" y="1802"/>
      <point x="446" y="1820"/>
      <point x="424" y="1820" type="curve" smooth="yes"/>
      <point x="402" y="1820"/>
      <point x="395" y="1802"/>
      <point x="395" y="1762" type="curve" smooth="yes"/>
      <point x="395" y="1754" type="line" smooth="yes"/>
      <point x="395" y="1714"/>
      <point x="402" y="1695"/>
    </contour>
    <component base="O"/>
    <component base="tildecomb.case" xOffset="61"/>
  </outline>
</glyph>
<glyph name="otildedieresis" format="2">
  <advance width="598"/>
  <unicode hex="1E4F"/>
  <anchor x="300" y="1556" name="top"/>
  <anchor x="299" y="0" name="bottom"/>
  <anchor x="299" y="495" name="center"/>
  <anchor x="427" y="0" name="ogonek"/>
  <anchor x="515" y="990" name="topright"/>
  <outline>
    <contour>
      <point x="208" y="1449" type="curve" smooth="yes"/>
      <point x="230" y="1449"/>
      <point x="237" y="1468"/>
      <point x="237" y="1508" type="curve" smooth="yes"/>
      <point x="237" y="1516" type="line" smooth="yes"/>
      <point x="237" y="1556"/>
      <point x="230" y="1574"/>
      <point x="208" y="1574" type="curve" smooth="yes"/>
      <point x="186" y="1574"/>
      <point x="179" y="1556"/>
      <point x="179" y="1516" type="curve" smooth="yes"/>
      <point x="179" y="1508" type="line" smooth="yes"/>
      <point x="179" y="1468"/>
      <point x="186" y="1449"/>
    </contour>
    <contour>
      <point x="392" y="1449" type="curve" smooth="yes"/>
      <point x="414" y="1449"/>
      <point x="421" y="1468"/>
      <point x="421" y="1508" type="curve" smooth="yes"/>
      <point x="421" y="1516" type="line" smooth="yes"/>
      <point x="421" y="1556"/>
      <point x="414" y="1574"/>
      <point x="392" y="1574" type="curve" smooth="yes"/>
      <point x="370" y="1574"/>
      <point x="363" y="1556"/>
      <point x="363" y="1516" type="curve" smooth="yes"/>
      <point x="363" y="1508" type="line" smooth="yes"/>
      <point x="363" y="1468"/>
      <point x="370" y="1449"/>
    </contour>
    <component base="o"/>
    <component base="tildecomb" xOffset="29"/>
  </outline>
</glyph>
<glyph name="sacutedotaccent" format="2">
  <advance width="468"/>
  <unicode hex="1E65"/>
  <anchor x="239" y="1546" name="top"/>
  <anchor x="229" y="0" name="bottom"/>
  <outline>
    <contour>
      <point x="238" y="1449" type="curve" smooth="yes"/>
      <point x="260" y="1449"/>
      <point x="268" y="1468"/>
      <point x="268" y="1508" type="curve" smooth="yes"/>
      <point x="268" y="1516" type="line" smooth="yes"/>
      <point x="268" y="1556"/>
      <point x="260" y="1574"/>
      <point x="238" y="1574" type="curve" smooth="yes"/>
      <point x="216" y="1574"/>
      <point x="209" y="1556"/>
      <point x="209" y="1516" type="curve" smooth="yes"/>
      <point x="209" y="1508" type="line" smooth="yes"/>
      <point x="209" y="1468"/>
      <point x="216" y="1449"/>
    </contour>
    <component base="s"/>
    <component base="acutecomb" xOffset="113"/>
  </outline>
</glyph>
<glyph name="Scarondotaccent" format="2">
  <advance width="525"/>
  <unicode hex="1E66"/>
  <anchor x="248" y="1774" name="top"/>
  <anchor x="248" y="0" name="bottom"/>
  <outline>
    <contour>
      <point x="247" y="1692" type="curve" smooth="yes"/>
      <point x="269" y="1692"/>
      <point x="277" y="1711"/>
      <point x="277" y="1751" type="curve" smooth="yes"/>
      <point x="277" y="1756" type="line" smooth="yes"/>
      <point x="277" y="1796"/>
      <point x="269" y="1814"/>
      <point x="247" y="1814" type="curve" smooth="yes"/>
      <point x="225" y="1814"/>
      <point x="218" y="1796"/>
      <point x="218" y="1756" type="curve" smooth="yes"/>
      <point x="218" y="1751" type="line" smooth="yes"/>
      <point x="218" y="1711"/>
      <point x="225" y="1692"/>
    </contour>
    <component base="S"/>
    <component base="caroncomb.case" xOffset="-26"/>
  </outline>
</glyph>
<glyph name="scarondotaccent" format="2">
  <advance width="468"/>
  <unicode hex="1E67"/>
  <anchor x="230" y="1546" name="top"/>
  <anchor x="229" y="0" name="bottom"/>
  <outline>
    <contour>
      <point x="229" y="1449" type="curve" smooth="yes"/>
      <point x="251" y="1449"/>
      <point x="259" y="1468"/>
      <point x="259" y="1508" type="curve" smooth="yes"/>
      <point x="259" y="1516" type="line" smooth="yes"/>
      <point x="259" y="1556"/>
      <point x="251" y="1574"/>
      <point x="229" y="1574" type="curve" smooth="yes"/>
      <point x="207" y="1574"/>
      <point x="200" y="1556"/>
      <point x="200" y="1516" type="curve" smooth="yes"/>
      <point x="200" y="1508" type="line" smooth="yes"/>
      <point x="200" y="1468"/>
      <point x="207" y="1449"/>
    </contour>
    <component base="s"/>
    <component base="caroncomb" xOffset="-15"/>
  </outline>
</glyph>
<glyph name="Ohorntilde" format="2">
  <advance width="664"/>
  <unicode hex="1EE0"/>
  <anchor x="332.32" y="1529" name="top"/>
  <anchor x="332" y="0" name="bottom"/>
  <anchor x="332" y="639" name="center"/>
  <anchor x="481" y="10" name="ogonek"/>
  <anchor x="20" y="1278" name="topleft"/>
  <anchor x="637" y="1515" name="topright"/>
  <outline>
    <contour>
      <point x="415" y="1433" type="curve" smooth="yes"/>
      <point x="470" y="1433"/>
      <point x="489" y="1464"/>
      <point x="489" y="1522" type="curve" smooth="yes"/>
      <point x="489" y="1550" type="line"/>
      <point x="459" y="1550" type="line"/>
      <point x="459" y="1526" type="line"/>
      <point x="459" y="1481"/>
      <point x="450" y="1464"/>
      <point x="417" y="1464" type="curve" smooth="yes"/>
      <point x="365" y="1464"/>
      <point x="311" y="1543"/>
      <point x="249" y="1543" type="curve" smooth="yes"/>
      <point x="192" y="1543"/>
      <point x="175" y="1512"/>
      <point x="175" y="1454" type="curve" smooth="yes"/>
      <point x="175" y="1425" type="line"/>
      <point x="204" y="1425" type="line"/>
      <point x="204" y="1450" type="line"/>
      <point x="204" y="1494"/>
      <point x="214" y="1512"/>
      <point x="247" y="1512" type="curve" smooth="yes"/>
      <point x="298" y="1512"/>
      <point x="351" y="1433"/>
    </contour>
    <component base="Ohorn"/>
  </outline>
</glyph>
<glyph name="Uhorntilde" format="2">
  <advance width="686"/>
  <unicode hex="1EEE"/>
  <anchor x="343" y="1529" name="top"/>
  <anchor x="343" y="0" name="bottom"/>
  <anchor x="491" y="10" name="ogonek"/>
  <anchor x="717" y="1515" name="topright"/>
  <outline>
    <contour>
      <point x="433" y="1433" type="curve" smooth="yes"/>
      <point x="493" y="1433"/>
      <point x="513" y="1464"/>
      <point x="513" y="1522" type="curve" smooth="yes"/>
      <point x="513" y="1550" type="line"/>
      <point x="481" y="1550" type="line"/>
      <point x="481" y="1526" type="line"/>
      <point x="481" y="1481"/>
      <point x="471" y="1464"/>
      <point x="435" y="1464" type="curve" smooth="yes"/>
      <point x="379" y="1464"/>
      <point x="320" y="1543"/>
      <point x="252" y="1543" type="curve" smooth="yes"/>
      <point x="191" y="1543"/>
      <point x="172" y="1512"/>
      <point x="172" y="1454" type="curve" smooth="yes"/>
      <point x="172" y="1425" type="line"/>
      <point x="203" y="1425" type="line"/>
      <point x="203" y="1450" type="line"/>
      <point x="203" y="1494"/>
      <point x="214" y="1512"/>
      <point x="250" y="1512" type="curve" smooth="yes"/>
      <point x="306" y="1512"/>
      <point x="363" y="1433"/>
    </contour>
    <component base="Uhorn"/>
  </outline>
</glyph>
<glyph name="dagger" format="2">
  <advance width="553"/>
  <unicode hex="2020"/>
  <outline>
    <contour>
      <point x="46" y="939" type="line"/>
      <point x="276" y="943" type="line"/>
      <point x="507" y="939" type="line"/>
      <point x="507" y="973" type="line"/>
      <point x="277" y="970" type="line"/>
      <point x="46" y="973" type="line"/>
    </contour>
    <contour>
      <point x="257" y="668" type="line"/>
      <point x="257" y="329" type="line"/>
      <point x="263" y="-279" type="line"/>
      <point x="290" y="-279" type="line"/>
      <point x="296" y="331" type="line"/>
      <point x="296" y="668" type="line"/>
      <point x="293" y="953" type="line"/>
      <point x="293" y="962" type="line"/>
      <point x="296" y="1278" type="line"/>
      <point x="257" y="1278" type="line"/>
      <point x="260" y="961" type="line"/>
      <point x="260" y="954" type="line"/>
    </contour>
  </outline>
</glyph>
<glyph name="daggerdbl" format="2">
  <advance width="573"/>
  <unicode hex="2021"/>
  <outline>
    <contour>
      <point x="56" y="939" type="line"/>
      <point x="286" y="943" type="line"/>
      <point x="517" y="939" type="line"/>
      <point x="517" y="973" type="line"/>
      <point x="287" y="970" type="line"/>
      <point x="56" y="973" type="line"/>
    </contour>
    <contour>
      <point x="56" y="60" type="line"/>
      <point x="56" y="26" type="line"/>
      <point x="287" y="29" type="line"/>
      <point x="517" y="26" type="line"/>
      <point x="517" y="60" type="line"/>
      <point x="286" y="56" type="line"/>
    </contour>
    <contour>
      <point x="267" y="-279" type="line"/>
      <point x="306" y="-279" type="line"/>
      <point x="303" y="40" type="line"/>
      <point x="303" y="47" type="line"/>
      <point x="306" y="331" type="line"/>
      <point x="306" y="668" type="line"/>
      <point x="303" y="953" type="line"/>
      <point x="303" y="960" type="line"/>
      <point x="306" y="1278" type="line"/>
      <point x="267" y="1278" type="line"/>
      <point x="270" y="960" type="line"/>
      <point x="270" y="953" type="line"/>
      <point x="267" y="668" type="line"/>
      <point x="267" y="329" type="line"/>
      <point x="270" y="47" type="line"/>
      <point x="270" y="40" type="line"/>
    </contour>
  </outline>
</glyph>
<glyph name="bullet" format="2">
  <advance width="286"/>
  <unicode hex="2022"/>
  <outline>
    <contour>
      <point x="142" y="510" type="curve" smooth="yes"/>
      <point x="182" y="510"/>
      <point x="196" y="542"/>
      <point x="196" y="616" type="curve" smooth="yes"/>
      <point x="196" y="648" type="line" smooth="yes"/>
      <point x="196" y="720"/>
      <point x="182" y="754"/>
      <point x="142" y="754" type="curve" smooth="yes"/>
      <point x="103" y="754"/>
      <point x="90" y="720"/>
      <point x="90" y="648" type="curve" smooth="yes"/>
      <point x="90" y="616" type="line" smooth="yes"/>
      <point x="90" y="542"/>
      <point x="103" y="510"/>
    </contour>
  </outline>
</glyph>
<glyph name="perthousand" format="2">
  <advance width="1387"/>
  <unicode hex="2030"/>
  <outline>
    <contour>
      <point x="1140" y="-15" type="curve" smooth="yes"/>
      <point x="1243" y="-15"/>
      <point x="1294" y="55"/>
      <point x="1294" y="178" type="curve"/>
      <point x="1294" y="411" type="line"/>
      <point x="1294" y="535"/>
      <point x="1243" y="605"/>
      <point x="1140" y="605" type="curve" smooth="yes"/>
      <point x="1037" y="605"/>
      <point x="985" y="535"/>
      <point x="985" y="411" type="curve"/>
      <point x="985" y="178" type="line"/>
      <point x="985" y="55"/>
      <point x="1037" y="-15"/>
    </contour>
    <contour>
      <point x="1140" y="17" type="curve" smooth="yes"/>
      <point x="1059" y="17"/>
      <point x="1020" y="70"/>
      <point x="1020" y="177" type="curve" smooth="yes"/>
      <point x="1020" y="413" type="line" smooth="yes"/>
      <point x="1020" y="520"/>
      <point x="1059" y="573"/>
      <point x="1140" y="573" type="curve" smooth="yes"/>
      <point x="1221" y="573"/>
      <point x="1259" y="520"/>
      <point x="1259" y="413" type="curve" smooth="yes"/>
      <point x="1259" y="177" type="line" smooth="yes"/>
      <point x="1259" y="70"/>
      <point x="1221" y="17"/>
    </contour>
    <component base="percent"/>
  </outline>
</glyph>
<glyph name="minute" format="2">
  <advance width="197"/>
  <unicode hex="2032"/>
  <outline>
    <contour>
      <point x="105" y="920" type="line"/>
      <point x="149" y="1334" type="line"/>
      <point x="108" y="1334" type="line"/>
      <point x="75" y="920" type="line"/>
    </contour>
  </outline>
</glyph>
<glyph name="commercialMinusSign" format="2">
  <advance width="413"/>
  <unicode hex="2052"/>
  <outline>
    <contour>
      <point x="61" y="0" type="line"/>
      <point x="96" y="0" type="line"/>
      <point x="352" y="1278" type="line"/>
      <point x="317" y="1278" type="line"/>
    </contour>
    <component base="period" xOffset="-7" yOffset="1167"/>
    <component base="period" xOffset="225"/>
  </outline>
</glyph>
<glyph name="colonsign" format="2">
  <advance width="526"/>
  <unicode hex="20A1"/>
  <anchor x="293" y="0" name="bottom"/>
  <anchor x="293" y="1278" name="top"/>
  <outline>
    <contour>
      <point x="176" y="-185" type="line"/>
      <point x="209" y="-185" type="line"/>
      <point x="222" y="39" type="line"/>
      <point x="189" y="39" type="line"/>
    </contour>
    <contour>
      <point x="286" y="-185" type="line"/>
      <point x="319" y="-185" type="line"/>
      <point x="330" y="7" type="line"/>
      <point x="297" y="7" type="line"/>
    </contour>
    <contour>
      <point x="260" y="1272" type="line"/>
      <point x="293" y="1272" type="line"/>
      <point x="303" y="1454" type="line"/>
      <point x="270" y="1454" type="line"/>
    </contour>
    <contour>
      <point x="369" y="1265" type="line"/>
      <point x="402" y="1265" type="line"/>
      <point x="413" y="1454" type="line"/>
      <point x="380" y="1454" type="line"/>
    </contour>
    <component base="C"/>
  </outline>
</glyph>
<glyph name="franc" format="2">
  <advance width="526"/>
  <unicode hex="20A3"/>
  <outline>
    <contour>
      <point x="127" y="0" type="line"/>
      <point x="166" y="0" type="line"/>
      <point x="166" y="1278" type="line"/>
      <point x="127" y="1278" type="line"/>
    </contour>
    <contour>
      <point x="20" y="294" type="line"/>
      <point x="384" y="294" type="line"/>
      <point x="390" y="325" type="line"/>
      <point x="26" y="325" type="line"/>
    </contour>
    <contour>
      <point x="145" y="638" type="line"/>
      <point x="468" y="638" type="line"/>
      <point x="468" y="673" type="line"/>
      <point x="145" y="673" type="line"/>
    </contour>
    <contour>
      <point x="127" y="1243" type="line"/>
      <point x="476" y="1243" type="line"/>
      <point x="476" y="1278" type="line"/>
      <point x="127" y="1278" type="line"/>
    </contour>
  </outline>
</glyph>
<glyph name="lira" format="2">
  <advance width="577"/>
  <unicode hex="20A4"/>
  <outline>
    <contour>
      <point x="107" y="35" type="line"/>
      <point x="107" y="37" type="line"/>
      <point x="202" y="130"/>
      <point x="228" y="277"/>
      <point x="228" y="447" type="curve" smooth="yes"/>
      <point x="228" y="626"/>
      <point x="186" y="863"/>
      <point x="186" y="1026" type="curve" smooth="yes"/>
      <point x="186" y="1175"/>
      <point x="231" y="1257"/>
      <point x="347" y="1257" type="curve" smooth="yes"/>
      <point x="399" y="1257"/>
      <point x="445" y="1246"/>
      <point x="497" y="1220" type="curve"/>
      <point x="492" y="1257" type="line"/>
      <point x="460" y="1276"/>
      <point x="404" y="1293"/>
      <point x="349" y="1293" type="curve" smooth="yes"/>
      <point x="205" y="1293"/>
      <point x="147" y="1199"/>
      <point x="147" y="1026" type="curve" smooth="yes"/>
      <point x="147" y="853"/>
      <point x="190" y="635"/>
      <point x="190" y="447" type="curve" smooth="yes"/>
      <point x="190" y="266"/>
      <point x="164" y="123"/>
      <point x="62" y="31" type="curve" smooth="yes"/>
      <point x="62" y="31" type="line"/>
      <point x="62" y="0" type="line"/>
      <point x="517" y="0" type="line"/>
      <point x="517" y="35" type="line"/>
    </contour>
    <contour>
      <point x="65" y="827" type="line"/>
      <point x="60" y="796" type="line"/>
      <point x="456" y="796" type="line"/>
      <point x="462" y="827" type="line"/>
    </contour>
    <contour>
      <point x="65" y="520" type="line"/>
      <point x="60" y="489" type="line"/>
      <point x="456" y="489" type="line"/>
      <point x="462" y="520" type="line"/>
    </contour>
  </outline>
</glyph>
<glyph name="naira" format="2">
  <advance width="728"/>
  <unicode hex="20A6"/>
  <outline>
    <contour>
      <point x="137" y="0" type="line"/>
      <point x="176" y="0" type="line"/>
      <point x="176" y="643" type="line"/>
      <point x="172" y="1245" type="line"/>
      <point x="183" y="1245" type="line"/>
      <point x="342" y="654" type="line"/>
      <point x="378" y="654" type="line"/>
      <point x="210" y="1278" type="line"/>
      <point x="137" y="1278" type="line"/>
    </contour>
    <contour>
      <point x="30" y="637" type="line"/>
      <point x="692" y="637" type="line"/>
      <point x="698" y="671" type="line"/>
      <point x="36" y="671" type="line"/>
    </contour>
    <contour>
      <point x="517" y="0" type="line"/>
      <point x="591" y="0" type="line"/>
      <point x="591" y="1278" type="line"/>
      <point x="552" y="1278" type="line"/>
      <point x="552" y="635" type="line"/>
      <point x="556" y="33" type="line"/>
      <point x="545" y="33" type="line"/>
      <point x="378" y="654" type="line"/>
      <point x="342" y="654" type="line"/>
    </contour>
  </outline>
</glyph>
<glyph name="won" format="2">
  <advance width="983"/>
  <unicode hex="20A9"/>
  <outline>
    <contour>
      <point x="262" y="0" type="line"/>
      <point x="333" y="0" type="line"/>
      <point x="418" y="656" type="line"/>
      <point x="384" y="656" type="line"/>
      <point x="307" y="63" type="line"/>
      <point x="303" y="33" type="line"/>
      <point x="292" y="33" type="line"/>
      <point x="288" y="63" type="line"/>
      <point x="142" y="1278" type="line"/>
      <point x="103" y="1278" type="line"/>
    </contour>
    <contour>
      <point x="654" y="0" type="line"/>
      <point x="725" y="0" type="line"/>
      <point x="884" y="1278" type="line"/>
      <point x="845" y="1278" type="line"/>
      <point x="699" y="63" type="line"/>
      <point x="695" y="33" type="line"/>
      <point x="684" y="33" type="line"/>
      <point x="680" y="63" type="line"/>
      <point x="604" y="654" type="line"/>
      <point x="570" y="654" type="line"/>
    </contour>
    <contour>
      <point x="72" y="637" type="line"/>
      <point x="905" y="637" type="line"/>
      <point x="911" y="671" type="line"/>
      <point x="78" y="671" type="line"/>
    </contour>
    <contour>
      <point x="459" y="1241" type="line"/>
      <point x="384" y="656" type="line"/>
      <point x="418" y="656" type="line"/>
      <point x="450" y="906" type="line"/>
      <point x="488" y="1210" type="line"/>
      <point x="499" y="1210" type="line"/>
      <point x="538" y="906" type="line"/>
      <point x="570" y="654" type="line"/>
      <point x="604" y="654" type="line"/>
      <point x="528" y="1241" type="line"/>
    </contour>
  </outline>
</glyph>
<glyph name="uni20AA" format="2">
  <advance width="874"/>
  <unicode hex="20AA"/>
  <outline>
    <contour>
      <point x="324" y="0" type="line"/>
      <point x="538" y="0" type="line" smooth="yes"/>
      <point x="691" y="0"/>
      <point x="753" y="81"/>
      <point x="753" y="233" type="curve" smooth="yes"/>
      <point x="753" y="1098" type="line"/>
      <point x="716" y="1098" type="line"/>
      <point x="716" y="233" type="line" smooth="yes"/>
      <point x="716" y="97"/>
      <point x="664" y="32"/>
      <point x="538" y="32" type="curve" smooth="yes"/>
      <point x="361" y="32" type="line"/>
      <point x="361" y="899" type="line"/>
      <point x="324" y="899" type="line"/>
    </contour>
    <contour>
      <point x="121" y="1098" type="line"/>
      <point x="121" y="0" type="line"/>
      <point x="158" y="0" type="line"/>
      <point x="158" y="1066" type="line"/>
      <point x="343" y="1066" type="line" smooth="yes"/>
      <point x="469" y="1066"/>
      <point x="521" y="1001"/>
      <point x="521" y="865" type="curve" smooth="yes"/>
      <point x="521" y="199" type="line"/>
      <point x="558" y="199" type="line"/>
      <point x="558" y="865" type="line" smooth="yes"/>
      <point x="558" y="1016"/>
      <point x="496" y="1098"/>
      <point x="343" y="1098" type="curve" smooth="yes"/>
    </contour>
  </outline>
</glyph>
<glyph name="dong" format="2">
  <advance width="617"/>
  <unicode hex="20AB"/>
  <anchor x="308.512" y="-245" name="bottom"/>
  <anchor x="309" y="495" name="center"/>
  <anchor x="309" y="1334" name="top"/>
  <anchor x="657" y="1334" name="topright"/>
  <outline>
    <contour>
      <point x="93" y="-244" type="line"/>
      <point x="524" y="-244" type="line"/>
      <point x="524" y="-213" type="line"/>
      <point x="93" y="-213" type="line"/>
    </contour>
    <component base="dcroat"/>
  </outline>
</glyph>
<glyph name="kip" format="2">
  <advance width="637"/>
  <unicode hex="20AD"/>
  <anchor x="346" y="0" name="bottom"/>
  <anchor x="346" y="1278" name="top"/>
  <outline>
    <contour>
      <point x="279" y="671" type="line"/>
      <point x="279" y="637" type="line"/>
      <point x="534" y="637" type="line"/>
      <point x="540" y="671" type="line"/>
    </contour>
    <contour>
      <point x="159" y="637" type="line"/>
      <point x="159" y="671" type="line"/>
      <point x="36" y="671" type="line"/>
      <point x="30" y="637" type="line"/>
    </contour>
    <component base="K" xOffset="16"/>
  </outline>
</glyph>
<glyph name="uni20AE" format="2">
  <advance width="533"/>
  <unicode hex="20AE"/>
  <anchor x="267" y="0" name="bottom"/>
  <anchor x="267" y="639" name="center"/>
  <anchor x="267" y="1278" name="top"/>
  <outline>
    <contour>
      <point x="462" y="923" type="line"/>
      <point x="71" y="689" type="line"/>
      <point x="71" y="652" type="line"/>
      <point x="462" y="886" type="line"/>
    </contour>
    <contour>
      <point x="462" y="616" type="line"/>
      <point x="71" y="382" type="line"/>
      <point x="71" y="345" type="line"/>
      <point x="462" y="579" type="line"/>
    </contour>
    <component base="T"/>
  </outline>
</glyph>
<glyph name="peso" format="2">
  <advance width="669"/>
  <unicode hex="20B1"/>
  <outline>
    <contour>
      <point x="148" y="426" type="line"/>
      <point x="321" y="426" type="line" smooth="yes"/>
      <point x="469" y="426"/>
      <point x="542" y="532"/>
      <point x="542" y="698" type="curve" smooth="yes"/>
      <point x="542" y="1008" type="line" smooth="yes"/>
      <point x="542" y="1173"/>
      <point x="469" y="1278"/>
      <point x="323" y="1278" type="curve" smooth="yes"/>
      <point x="155" y="1278" type="line"/>
      <point x="155" y="1243" type="line"/>
      <point x="321" y="1243" type="line" smooth="yes"/>
      <point x="444" y="1243"/>
      <point x="503" y="1153"/>
      <point x="503" y="1006" type="curve" smooth="yes"/>
      <point x="503" y="700" type="line" smooth="yes"/>
      <point x="503" y="552"/>
      <point x="444" y="461"/>
      <point x="319" y="461" type="curve" smooth="yes"/>
      <point x="148" y="461" type="line"/>
    </contour>
    <contour>
      <point x="30" y="689" type="line"/>
      <point x="160" y="689" type="line"/>
      <point x="160" y="720" type="line"/>
      <point x="36" y="720" type="line"/>
    </contour>
    <contour>
      <point x="137" y="0" type="line"/>
      <point x="176" y="0" type="line"/>
      <point x="176" y="435" type="line"/>
      <point x="176" y="452" type="line"/>
      <point x="176" y="1278" type="line"/>
      <point x="137" y="1278" type="line"/>
    </contour>
    <contour>
      <point x="30" y="996" type="line"/>
      <point x="160" y="996" type="line"/>
      <point x="160" y="1027" type="line"/>
      <point x="36" y="1027" type="line"/>
    </contour>
    <contour>
      <point x="520" y="689" type="line"/>
      <point x="643" y="689" type="line"/>
      <point x="649" y="720" type="line"/>
      <point x="520" y="720" type="line"/>
    </contour>
    <contour>
      <point x="520" y="996" type="line"/>
      <point x="643" y="996" type="line"/>
      <point x="649" y="1027" type="line"/>
      <point x="520" y="1027" type="line"/>
    </contour>
  </outline>
</glyph>
<glyph name="guarani" format="2">
  <advance width="637"/>
  <unicode hex="20B2"/>
  <outline>
    <contour>
      <point x="342" y="1276" type="line"/>
      <point x="342" y="1454" type="line"/>
      <point x="307" y="1454" type="line"/>
      <point x="307" y="1276" type="line"/>
    </contour>
    <contour>
      <point x="342" y="-185" type="line"/>
      <point x="342" y="6" type="line"/>
      <point x="307" y="6" type="line"/>
      <point x="307" y="-185" type="line"/>
    </contour>
    <contour>
      <point x="323" y="-15" type="curve" smooth="yes"/>
      <point x="442" y="-15"/>
      <point x="502" y="30"/>
      <point x="537" y="79" type="curve"/>
      <point x="537" y="699" type="line"/>
      <point x="336" y="699" type="line"/>
      <point x="336" y="666" type="line"/>
      <point x="514" y="666" type="line"/>
      <point x="498" y="681" type="line"/>
      <point x="498" y="88" type="line"/>
      <point x="479" y="63"/>
      <point x="429" y="21"/>
      <point x="323" y="21" type="curve" smooth="yes"/>
      <point x="199" y="21"/>
      <point x="139" y="112"/>
      <point x="139" y="280" type="curve" smooth="yes"/>
      <point x="139" y="982" type="line" smooth="yes"/>
      <point x="139" y="1160"/>
      <point x="194" y="1257"/>
      <point x="330" y="1257" type="curve" smooth="yes"/>
      <point x="413" y="1257"/>
      <point x="470" y="1225"/>
      <point x="522" y="1181" type="curve"/>
      <point x="516" y="1223" type="line"/>
      <point x="475" y="1261"/>
      <point x="416" y="1293"/>
      <point x="330" y="1293" type="curve" smooth="yes"/>
      <point x="168" y="1293"/>
      <point x="100" y="1183"/>
      <point x="100" y="982" type="curve" smooth="yes"/>
      <point x="100" y="281" type="line" smooth="yes"/>
      <point x="100" y="86"/>
      <point x="175" y="-15"/>
    </contour>
  </outline>
</glyph>
<glyph name="cedi" format="2">
  <advance width="526"/>
  <unicode hex="20B5"/>
  <anchor x="293" y="0" name="bottom"/>
  <anchor x="293" y="1278" name="top"/>
  <outline>
    <contour>
      <point x="284" y="-185" type="line"/>
      <point x="319" y="-185" type="line"/>
      <point x="319" y="6" type="line"/>
      <point x="284" y="6" type="line"/>
    </contour>
    <contour>
      <point x="284" y="1275" type="line"/>
      <point x="319" y="1275" type="line"/>
      <point x="319" y="1454" type="line"/>
      <point x="284" y="1454" type="line"/>
    </contour>
    <component base="C"/>
  </outline>
</glyph>
<glyph name="liraTurkish" format="2">
  <advance width="618"/>
  <unicode hex="20BA"/>
  <outline>
    <contour>
      <point x="147" y="0" type="line"/>
      <point x="179" y="0" type="line"/>
      <point x="422" y="0"/>
      <point x="534" y="106"/>
      <point x="534" y="337" type="curve"/>
      <point x="534" y="605" type="line"/>
      <point x="499" y="605" type="line"/>
      <point x="499" y="340" type="line"/>
      <point x="499" y="132"/>
      <point x="402" y="36"/>
      <point x="190" y="35" type="curve"/>
      <point x="186" y="35" type="line"/>
      <point x="186" y="1278" type="line"/>
      <point x="147" y="1278" type="line"/>
    </contour>
    <contour>
      <point x="431" y="1102" type="line"/>
      <point x="40" y="868" type="line"/>
      <point x="40" y="831" type="line"/>
      <point x="431" y="1065" type="line"/>
    </contour>
    <contour>
      <point x="431" y="795" type="line"/>
      <point x="40" y="561" type="line"/>
      <point x="40" y="524" type="line"/>
      <point x="431" y="758" type="line"/>
    </contour>
  </outline>
</glyph>
<glyph name="manat" format="2">
  <advance width="766"/>
  <unicode hex="20BC"/>
  <outline>
    <contour>
      <point x="383" y="1293" type="curve" smooth="yes"/>
      <point x="202" y="1293"/>
      <point x="114" y="1185"/>
      <point x="114" y="977" type="curve"/>
      <point x="114" y="0" type="line"/>
      <point x="153" y="0" type="line"/>
      <point x="153" y="977" type="line" smooth="yes"/>
      <point x="153" y="1158"/>
      <point x="224" y="1257"/>
      <point x="383" y="1257" type="curve" smooth="yes"/>
      <point x="542" y="1257"/>
      <point x="613" y="1158"/>
      <point x="613" y="977" type="curve" smooth="yes"/>
      <point x="613" y="0" type="line"/>
      <point x="652" y="0" type="line"/>
      <point x="652" y="977" type="line"/>
      <point x="652" y="1185"/>
      <point x="564" y="1293"/>
    </contour>
    <contour>
      <point x="401" y="0" type="line"/>
      <point x="401" y="1454" type="line"/>
      <point x="366" y="1454" type="line"/>
      <point x="366" y="0" type="line"/>
    </contour>
  </outline>
</glyph>
<glyph name="ruble" format="2">
  <advance width="616"/>
  <unicode hex="20BD"/>
  <outline>
    <contour>
      <point x="149" y="516" type="line"/>
      <point x="322" y="516" type="line" smooth="yes"/>
      <point x="470" y="516"/>
      <point x="543" y="622"/>
      <point x="543" y="788" type="curve" smooth="yes"/>
      <point x="543" y="1008" type="line" smooth="yes"/>
      <point x="543" y="1173"/>
      <point x="470" y="1278"/>
      <point x="324" y="1278" type="curve" smooth="yes"/>
      <point x="156" y="1278" type="line"/>
      <point x="156" y="1243" type="line"/>
      <point x="322" y="1243" type="line" smooth="yes"/>
      <point x="445" y="1243"/>
      <point x="504" y="1153"/>
      <point x="504" y="1006" type="curve" smooth="yes"/>
      <point x="504" y="790" type="line" smooth="yes"/>
      <point x="504" y="642"/>
      <point x="445" y="551"/>
      <point x="320" y="551" type="curve" smooth="yes"/>
      <point x="149" y="551" type="line"/>
    </contour>
    <contour>
      <point x="30" y="264" type="line"/>
      <point x="394" y="264" type="line"/>
      <point x="400" y="295" type="line"/>
      <point x="36" y="295" type="line"/>
    </contour>
    <contour>
      <point x="31" y="516" type="line"/>
      <point x="161" y="516" type="line"/>
      <point x="161" y="550" type="line"/>
      <point x="37" y="550" type="line"/>
    </contour>
    <contour>
      <point x="138" y="0" type="line"/>
      <point x="177" y="0" type="line"/>
      <point x="177" y="525" type="line"/>
      <point x="177" y="542" type="line"/>
      <point x="177" y="1278" type="line"/>
      <point x="138" y="1278" type="line"/>
    </contour>
  </outline>
</glyph>
<glyph name="literSign" format="2">
  <advance width="518"/>
  <unicode hex="2113"/>
  <outline>
    <contour>
      <point x="157" y="388" type="curve"/>
      <point x="157" y="339" type="line"/>
      <point x="366" y="543"/>
      <point x="438" y="679"/>
      <point x="438" y="967" type="curve"/>
      <point x="438" y="1133" type="line"/>
      <point x="438" y="1278"/>
      <point x="388" y="1344"/>
      <point x="284" y="1344" type="curve" smooth="yes"/>
      <point x="180" y="1344"/>
      <point x="133" y="1278"/>
      <point x="133" y="1133" type="curve"/>
      <point x="133" y="328" type="line"/>
      <point x="170" y="328" type="line"/>
      <point x="170" y="1133" type="line"/>
      <point x="170" y="1255"/>
      <point x="205" y="1311"/>
      <point x="282" y="1311" type="curve" smooth="yes"/>
      <point x="364" y="1311"/>
      <point x="401" y="1255"/>
      <point x="401" y="1133" type="curve"/>
      <point x="401" y="966" type="line"/>
      <point x="401" y="700"/>
      <point x="334" y="567"/>
    </contour>
    <contour>
      <point x="154" y="339" type="curve"/>
      <point x="154" y="388" type="line"/>
      <point x="111" y="339"/>
      <point x="64" y="295"/>
      <point x="16" y="254" type="curve"/>
      <point x="16" y="206" type="line"/>
      <point x="65" y="249"/>
      <point x="112" y="293"/>
    </contour>
    <contour>
      <point x="311" y="-9" type="curve" smooth="yes"/>
      <point x="366" y="-9"/>
      <point x="420" y="13"/>
      <point x="446" y="35" type="curve"/>
      <point x="451" y="76" type="line"/>
      <point x="420" y="50"/>
      <point x="370" y="26"/>
      <point x="313" y="26" type="curve" smooth="yes"/>
      <point x="211" y="26"/>
      <point x="170" y="84"/>
      <point x="170" y="215" type="curve" smooth="yes"/>
      <point x="170" y="587" type="line"/>
      <point x="133" y="587" type="line"/>
      <point x="133" y="209" type="line" smooth="yes"/>
      <point x="133" y="62"/>
      <point x="191" y="-9"/>
    </contour>
  </outline>
</glyph>
<glyph name="numero" format="2">
  <advance width="1105"/>
  <unicode hex="2116"/>
  <anchor x="348" y="0" name="bottom"/>
  <anchor x="348" y="1278" name="top"/>
  <outline>
    <contour>
      <point x="740" y="450" type="line"/>
      <point x="1019" y="450" type="line"/>
      <point x="1019" y="482" type="line"/>
      <point x="740" y="482" type="line"/>
    </contour>
    <contour>
      <point x="879" y="626" type="curve" smooth="yes"/>
      <point x="974" y="626"/>
      <point x="1021" y="689"/>
      <point x="1021" y="807" type="curve"/>
      <point x="1021" y="1108" type="line"/>
      <point x="1021" y="1226"/>
      <point x="974" y="1288"/>
      <point x="879" y="1288" type="curve" smooth="yes"/>
      <point x="785" y="1288"/>
      <point x="738" y="1226"/>
      <point x="738" y="1108" type="curve"/>
      <point x="738" y="807" type="line"/>
      <point x="738" y="688"/>
      <point x="785" y="626"/>
    </contour>
    <contour>
      <point x="879" y="658" type="curve" smooth="yes"/>
      <point x="807" y="658"/>
      <point x="774" y="710"/>
      <point x="774" y="805" type="curve" smooth="yes"/>
      <point x="774" y="1109" type="line" smooth="yes"/>
      <point x="774" y="1205"/>
      <point x="807" y="1256"/>
      <point x="879" y="1256" type="curve" smooth="yes"/>
      <point x="951" y="1256"/>
      <point x="984" y="1206"/>
      <point x="984" y="1109" type="curve" smooth="yes"/>
      <point x="984" y="805" type="line" smooth="yes"/>
      <point x="984" y="709"/>
      <point x="951" y="658"/>
    </contour>
    <component base="N"/>
  </outline>
</glyph>
<glyph name="trademark" format="2">
  <advance width="701"/>
  <unicode hex="2122"/>
  <outline>
    <contour>
      <point x="112" y="639" type="line"/>
      <point x="147" y="639" type="line"/>
      <point x="147" y="1278" type="line"/>
      <point x="112" y="1278" type="line"/>
    </contour>
    <contour>
      <point x="18" y="1247" type="line"/>
      <point x="240" y="1247" type="line"/>
      <point x="240" y="1278" type="line"/>
      <point x="18" y="1278" type="line"/>
    </contour>
    <contour>
      <point x="316" y="639" type="line"/>
      <point x="350" y="639" type="line"/>
      <point x="350" y="941" type="line"/>
      <point x="349" y="1241" type="line"/>
      <point x="356" y="1241" type="line"/>
      <point x="445" y="704" type="line"/>
      <point x="494" y="704" type="line"/>
      <point x="583" y="1241" type="line"/>
      <point x="590" y="1241" type="line"/>
      <point x="589" y="941" type="line"/>
      <point x="589" y="639" type="line"/>
      <point x="623" y="639" type="line"/>
      <point x="622" y="1278" type="line"/>
      <point x="560" y="1278" type="line"/>
      <point x="471" y="740" type="line"/>
      <point x="468" y="740" type="line"/>
      <point x="379" y="1278" type="line"/>
      <point x="317" y="1278" type="line"/>
    </contour>
  </outline>
</glyph>
<glyph name="Ohm" format="2">
  <advance width="618"/>
  <unicode hex="2126"/>
  <outline>
    <contour>
      <point x="309" y="1293" type="curve" smooth="yes"/>
      <point x="156" y="1293"/>
      <point x="77" y="1187"/>
      <point x="77" y="985" type="curve" smooth="yes"/>
      <point x="77" y="311" type="line" smooth="yes"/>
      <point x="77" y="136"/>
      <point x="138" y="55"/>
      <point x="220" y="30" type="curve"/>
      <point x="229" y="35" type="line"/>
      <point x="36" y="35" type="line"/>
      <point x="36" y="0" type="line"/>
      <point x="262" y="0" type="line"/>
      <point x="262" y="36" type="line"/>
      <point x="168" y="61"/>
      <point x="116" y="154"/>
      <point x="116" y="313" type="curve" smooth="yes"/>
      <point x="116" y="987" type="line" smooth="yes"/>
      <point x="116" y="1162"/>
      <point x="178" y="1257"/>
      <point x="309" y="1257" type="curve" smooth="yes"/>
      <point x="440" y="1257"/>
      <point x="502" y="1162"/>
      <point x="502" y="987" type="curve" smooth="yes"/>
      <point x="502" y="313" type="line" smooth="yes"/>
      <point x="502" y="154"/>
      <point x="450" y="61"/>
      <point x="356" y="36" type="curve"/>
      <point x="356" y="0" type="line"/>
      <point x="582" y="0" type="line"/>
      <point x="582" y="35" type="line"/>
      <point x="389" y="35" type="line"/>
      <point x="398" y="30" type="line"/>
      <point x="480" y="55"/>
      <point x="541" y="136"/>
      <point x="541" y="311" type="curve" smooth="yes"/>
      <point x="541" y="985" type="line" smooth="yes"/>
      <point x="541" y="1187"/>
      <point x="462" y="1293"/>
    </contour>
  </outline>
</glyph>
<glyph name="estimated" format="2">
  <advance width="1575"/>
  <unicode hex="212E"/>
  <outline>
    <contour>
      <point x="362" y="581" type="curve"/>
      <point x="1475" y="581" type="line"/>
      <point x="1475" y="606" type="line" smooth="yes"/>
      <point x="1475" y="979"/>
      <point x="1199" y="1227"/>
      <point x="786" y="1227" type="curve" smooth="yes"/>
      <point x="374" y="1227"/>
      <point x="100" y="979"/>
      <point x="100" y="606" type="curve" smooth="yes"/>
      <point x="100" y="226"/>
      <point x="374" y="-10"/>
      <point x="786" y="-10" type="curve" smooth="yes"/>
      <point x="1000" y="-10"/>
      <point x="1209" y="86"/>
      <point x="1333" y="230" type="curve"/>
      <point x="1232" y="230" type="line"/>
      <point x="1123" y="116"/>
      <point x="969" y="46"/>
      <point x="789" y="46" type="curve" smooth="yes"/>
      <point x="611" y="46"/>
      <point x="473" y="97"/>
      <point x="370" y="204" type="curve" smooth="yes"/>
      <point x="357" y="218"/>
      <point x="351" y="231"/>
      <point x="351" y="244" type="curve" smooth="yes"/>
      <point x="351" y="574" type="line" smooth="yes"/>
      <point x="351" y="579"/>
      <point x="355" y="581"/>
    </contour>
    <contour>
      <point x="1225" y="983" type="curve"/>
      <point x="1225" y="647" type="line" smooth="yes"/>
      <point x="1225" y="640"/>
      <point x="1222" y="637"/>
      <point x="1215" y="637" type="curve" smooth="yes"/>
      <point x="362" y="637" type="line" smooth="yes"/>
      <point x="355" y="637"/>
      <point x="351" y="640"/>
      <point x="351" y="647" type="curve" smooth="yes"/>
      <point x="351" y="976" type="line" smooth="yes"/>
      <point x="351" y="990"/>
      <point x="358" y="1007"/>
      <point x="370" y="1020" type="curve" smooth="yes"/>
      <point x="452" y="1104"/>
      <point x="621" y="1178"/>
      <point x="789" y="1178" type="curve" smooth="yes"/>
      <point x="954" y="1178"/>
      <point x="1109" y="1129"/>
      <point x="1205" y="1025" type="curve" smooth="yes"/>
      <point x="1218" y="1011"/>
      <point x="1225" y="998"/>
    </contour>
  </outline>
</glyph>
<glyph name="partialdiff" format="2">
  <advance width="609"/>
  <unicode hex="2202"/>
  <outline>
    <contour>
      <point x="202" y="1272" type="curve"/>
      <point x="195" y="1234" type="line"/>
      <point x="226" y="1249"/>
      <point x="260" y="1258"/>
      <point x="299" y="1258" type="curve" smooth="yes"/>
      <point x="421" y="1258"/>
      <point x="469" y="1177"/>
      <point x="469" y="1028" type="curve" smooth="yes"/>
      <point x="469" y="1016"/>
      <point x="468" y="1001"/>
      <point x="429" y="245" type="curve" smooth="yes"/>
      <point x="421" y="93"/>
      <point x="371" y="14"/>
      <point x="269" y="14" type="curve" smooth="yes"/>
      <point x="170" y="14"/>
      <point x="123" y="82"/>
      <point x="123" y="213" type="curve" smooth="yes"/>
      <point x="123" y="228"/>
      <point x="127" y="307"/>
      <point x="138" y="512" type="curve"/>
      <point x="145" y="666"/>
      <point x="193" y="758"/>
      <point x="289" y="758" type="curve" smooth="yes"/>
      <point x="392" y="758"/>
      <point x="444" y="688"/>
      <point x="449" y="539" type="curve"/>
      <point x="472" y="561" type="line"/>
      <point x="457" y="561" type="line"/>
      <point x="464" y="706"/>
      <point x="404" y="792"/>
      <point x="286" y="792" type="curve" smooth="yes"/>
      <point x="172" y="792"/>
      <point x="108" y="691"/>
      <point x="100" y="517" type="curve"/>
      <point x="89" y="306"/>
      <point x="85" y="234"/>
      <point x="85" y="213" type="curve" smooth="yes"/>
      <point x="85" y="58"/>
      <point x="144" y="-20"/>
      <point x="267" y="-20" type="curve" smooth="yes"/>
      <point x="394" y="-20"/>
      <point x="458" y="70"/>
      <point x="467" y="248" type="curve" smooth="yes"/>
      <point x="506" y="998"/>
      <point x="507" y="1012"/>
      <point x="507" y="1028" type="curve" smooth="yes"/>
      <point x="507" y="1199"/>
      <point x="445" y="1293"/>
      <point x="301" y="1293" type="curve" smooth="yes"/>
      <point x="264" y="1293"/>
      <point x="230" y="1285"/>
    </contour>
  </outline>
</glyph>
<glyph name="emptyset" format="2">
  <advance width="1284"/>
  <unicode hex="2205"/>
  <outline>
    <contour>
      <point x="177" y="-98" type="line"/>
      <point x="220" y="-98" type="line"/>
      <point x="1118" y="1131" type="line"/>
      <point x="1075" y="1131" type="line"/>
    </contour>
    <contour>
      <point x="643" y="-25" type="curve" smooth="yes"/>
      <point x="968" y="-25"/>
      <point x="1184" y="191"/>
      <point x="1184" y="514" type="curve"/>
      <point x="1184" y="542" type="line"/>
      <point x="1184" y="852"/>
      <point x="968" y="1058"/>
      <point x="643" y="1058" type="curve" smooth="yes"/>
      <point x="317" y="1058"/>
      <point x="100" y="852"/>
      <point x="100" y="542" type="curve"/>
      <point x="100" y="514" type="line"/>
      <point x="100" y="191"/>
      <point x="317" y="-25"/>
    </contour>
    <contour>
      <point x="643" y="10" type="curve" smooth="yes"/>
      <point x="340" y="10"/>
      <point x="138" y="212"/>
      <point x="138" y="514" type="curve" smooth="yes"/>
      <point x="138" y="542" type="line" smooth="yes"/>
      <point x="138" y="831"/>
      <point x="340" y="1024"/>
      <point x="643" y="1024" type="curve" smooth="yes"/>
      <point x="945" y="1024"/>
      <point x="1146" y="831"/>
      <point x="1146" y="542" type="curve" smooth="yes"/>
      <point x="1146" y="514" type="line" smooth="yes"/>
      <point x="1146" y="212"/>
      <point x="945" y="10"/>
    </contour>
  </outline>
</glyph>
<glyph name="increment" format="2">
  <advance width="677"/>
  <unicode hex="2206"/>
  <outline>
    <contour>
      <point x="605" y="8" type="line"/>
      <point x="641" y="28" type="line"/>
      <point x="360" y="1278" type="line"/>
      <point x="326" y="1278" type="line"/>
    </contour>
    <contour>
      <point x="36" y="28" type="line"/>
      <point x="36" y="0" type="line"/>
      <point x="399" y="0" type="line"/>
      <point x="399" y="35" type="line"/>
      <point x="56" y="35" type="line"/>
    </contour>
    <contour>
      <point x="72" y="8" type="line"/>
      <point x="351" y="1278" type="line"/>
      <point x="317" y="1278" type="line"/>
      <point x="36" y="28" type="line"/>
    </contour>
    <contour>
      <point x="641" y="28" type="line"/>
      <point x="617" y="35" type="line"/>
      <point x="278" y="35" type="line"/>
      <point x="278" y="0" type="line"/>
      <point x="641" y="0" type="line"/>
    </contour>
  </outline>
</glyph>
<glyph name="product" format="2">
  <advance width="632"/>
  <unicode hex="220F"/>
  <outline>
    <contour>
      <point x="511" y="-185" type="line"/>
      <point x="511" y="1278" type="line"/>
      <point x="121" y="1278" type="line"/>
      <point x="121" y="-185" type="line"/>
      <point x="160" y="-185" type="line"/>
      <point x="160" y="1261" type="line"/>
      <point x="142" y="1243" type="line"/>
      <point x="487" y="1243" type="line"/>
      <point x="472" y="1259" type="line"/>
      <point x="472" y="-185" type="line"/>
    </contour>
  </outline>
</glyph>
<glyph name="summation" format="2">
  <advance width="414"/>
  <unicode hex="2211"/>
  <outline>
    <contour>
      <point x="36" y="1244" type="line"/>
      <point x="54" y="1244" type="line"/>
      <point x="364" y="1244" type="line"/>
      <point x="364" y="1278" type="line"/>
      <point x="36" y="1278" type="line"/>
    </contour>
    <contour>
      <point x="36" y="-185" type="line"/>
      <point x="364" y="-185" type="line"/>
      <point x="364" y="-151" type="line"/>
      <point x="53" y="-151" type="line"/>
      <point x="36" y="-151" type="line"/>
    </contour>
    <contour>
      <point x="248" y="549" type="line"/>
      <point x="248" y="543" type="line"/>
      <point x="36" y="-151" type="line"/>
      <point x="65" y="-175" type="line"/>
      <point x="284" y="532" type="line"/>
      <point x="284" y="560" type="line"/>
      <point x="65" y="1268" type="line"/>
      <point x="36" y="1244" type="line"/>
    </contour>
  </outline>
</glyph>
<glyph name="radical" format="2">
  <advance width="651"/>
  <unicode hex="221A"/>
  <outline>
    <contour>
      <point x="236" y="-241" type="line"/>
      <point x="273" y="-241" type="line"/>
      <point x="611" y="1352" type="line"/>
      <point x="574" y="1352" type="line"/>
    </contour>
    <contour>
      <point x="204" y="-241" type="line"/>
      <point x="273" y="-241" type="line"/>
      <point x="245" y="-208" type="line"/>
      <point x="232" y="-208" type="line"/>
      <point x="117" y="339" type="line"/>
      <point x="78" y="339" type="line"/>
    </contour>
  </outline>
</glyph>
<glyph name="infinity" format="2">
  <advance width="817"/>
  <unicode hex="221E"/>
  <outline>
    <contour>
      <point x="89" y="303" type="line"/>
      <point x="89" y="140"/>
      <point x="139" y="79"/>
      <point x="223" y="79" type="curve" smooth="yes"/>
      <point x="328" y="79"/>
      <point x="372" y="164"/>
      <point x="413" y="428" type="curve"/>
      <point x="417" y="428" type="line"/>
      <point x="417" y="518" type="line"/>
      <point x="413" y="518" type="line"/>
      <point x="372" y="784"/>
      <point x="328" y="869"/>
      <point x="223" y="869" type="curve" smooth="yes"/>
      <point x="140" y="869"/>
      <point x="89" y="812"/>
      <point x="89" y="666" type="curve"/>
    </contour>
    <contour>
      <point x="126" y="293" type="curve"/>
      <point x="126" y="676" type="line"/>
      <point x="126" y="781"/>
      <point x="161" y="836"/>
      <point x="226" y="836" type="curve" smooth="yes"/>
      <point x="310" y="836"/>
      <point x="347" y="738"/>
      <point x="387" y="473" type="curve"/>
      <point x="349" y="209"/>
      <point x="312" y="111"/>
      <point x="226" y="111" type="curve" smooth="yes"/>
      <point x="161" y="111"/>
      <point x="126" y="173"/>
    </contour>
    <contour>
      <point x="728" y="303" type="curve"/>
      <point x="728" y="666" type="line"/>
      <point x="728" y="812"/>
      <point x="677" y="869"/>
      <point x="594" y="869" type="curve" smooth="yes"/>
      <point x="489" y="869"/>
      <point x="445" y="784"/>
      <point x="404" y="518" type="curve"/>
      <point x="400" y="518" type="line"/>
      <point x="400" y="428" type="line"/>
      <point x="404" y="428" type="line"/>
      <point x="445" y="164"/>
      <point x="489" y="79"/>
      <point x="594" y="79" type="curve" smooth="yes"/>
      <point x="678" y="79"/>
      <point x="728" y="140"/>
    </contour>
    <contour>
      <point x="691" y="293" type="line"/>
      <point x="691" y="173"/>
      <point x="656" y="111"/>
      <point x="591" y="111" type="curve" smooth="yes"/>
      <point x="505" y="111"/>
      <point x="468" y="209"/>
      <point x="430" y="473" type="curve"/>
      <point x="470" y="738"/>
      <point x="507" y="836"/>
      <point x="591" y="836" type="curve" smooth="yes"/>
      <point x="656" y="836"/>
      <point x="691" y="781"/>
      <point x="691" y="676" type="curve"/>
    </contour>
  </outline>
</glyph>
<glyph name="integral" format="2">
  <advance width="311"/>
  <unicode hex="222B"/>
  <outline>
    <contour>
      <point x="-122" y="-304" type="curve"/>
      <point x="-120" y="-336" type="line"/>
      <point x="-100" y="-342"/>
      <point x="-77" y="-345"/>
      <point x="-51" y="-345" type="curve" smooth="yes"/>
      <point x="47" y="-345"/>
      <point x="119" y="-294"/>
      <point x="129" y="-151" type="curve"/>
      <point x="217" y="1136" type="line"/>
      <point x="225" y="1255"/>
      <point x="273" y="1304"/>
      <point x="370" y="1304" type="curve" smooth="yes"/>
      <point x="391" y="1304"/>
      <point x="412" y="1301"/>
      <point x="433" y="1296" type="curve"/>
      <point x="431" y="1328" type="line"/>
      <point x="411" y="1334"/>
      <point x="388" y="1337"/>
      <point x="362" y="1337" type="curve" smooth="yes"/>
      <point x="264" y="1337"/>
      <point x="192" y="1286"/>
      <point x="182" y="1143" type="curve"/>
      <point x="94" y="-144" type="line"/>
      <point x="86" y="-263"/>
      <point x="38" y="-312"/>
      <point x="-59" y="-312" type="curve" smooth="yes"/>
      <point x="-80" y="-312"/>
      <point x="-101" y="-309"/>
    </contour>
  </outline>
</glyph>
<glyph name="notequal" format="2">
  <advance width="654"/>
  <unicode hex="2260"/>
  <outline>
    <contour>
      <point x="187" y="274" type="line"/>
      <point x="224" y="274" type="line"/>
      <point x="422" y="998" type="line"/>
      <point x="385" y="998" type="line"/>
    </contour>
    <component base="equal"/>
  </outline>
</glyph>
<glyph name="lessequal" format="2">
  <advance width="654"/>
  <unicode hex="2264"/>
  <outline>
    <contour>
      <point x="570" y="501" type="line"/>
      <point x="570" y="536" type="line"/>
      <point x="114" y="700" type="line"/>
      <point x="114" y="713" type="line"/>
      <point x="570" y="877" type="line"/>
      <point x="570" y="912" type="line"/>
      <point x="84" y="737" type="line"/>
      <point x="84" y="676" type="line"/>
    </contour>
    <contour>
      <point x="84" y="274" type="line"/>
      <point x="570" y="274" type="line"/>
      <point x="570" y="307" type="line"/>
      <point x="84" y="307" type="line"/>
    </contour>
  </outline>
</glyph>
<glyph name="greaterequal" format="2">
  <advance width="654"/>
  <unicode hex="2265"/>
  <outline>
    <contour>
      <point x="84" y="501" type="line"/>
      <point x="570" y="676" type="line"/>
      <point x="570" y="737" type="line"/>
      <point x="84" y="912" type="line"/>
      <point x="84" y="877" type="line"/>
      <point x="540" y="713" type="line"/>
      <point x="540" y="700" type="line"/>
      <point x="84" y="536" type="line"/>
    </contour>
    <contour>
      <point x="570" y="274" type="line"/>
      <point x="570" y="307" type="line"/>
      <point x="84" y="307" type="line"/>
      <point x="84" y="274" type="line"/>
    </contour>
  </outline>
</glyph>
<glyph name="lozenge" format="2">
  <advance width="539"/>
  <unicode hex="25CA"/>
  <outline>
    <contour>
      <point x="70" y="624" type="line"/>
      <point x="282" y="1278" type="line"/>
      <point x="242" y="1278" type="line"/>
      <point x="43" y="657" type="line"/>
      <point x="43" y="623" type="line"/>
    </contour>
    <contour>
      <point x="70" y="654" type="line"/>
      <point x="43" y="623" type="line"/>
      <point x="242" y="0" type="line"/>
      <point x="282" y="0" type="line"/>
    </contour>
    <contour>
      <point x="469" y="624" type="line"/>
      <point x="496" y="623" type="line"/>
      <point x="496" y="657" type="line"/>
      <point x="297" y="1278" type="line"/>
      <point x="257" y="1278" type="line"/>
    </contour>
    <contour>
      <point x="469" y="654" type="line"/>
      <point x="257" y="0" type="line"/>
      <point x="297" y="0" type="line"/>
      <point x="496" y="623" type="line"/>
    </contour>
  </outline>
</glyph>
<glyph name="leftanglebracketmath" format="2">
  <advance width="370"/>
  <unicode hex="27E8"/>
  <outline>
    <contour>
      <point x="157" y="556" type="line"/>
      <point x="330" y="1352" type="line"/>
      <point x="292" y="1352" type="line"/>
      <point x="121" y="570" type="line"/>
      <point x="121" y="542" type="line"/>
      <point x="292" y="-241" type="line"/>
      <point x="330" y="-241" type="line"/>
    </contour>
  </outline>
</glyph>
<glyph name="rightanglebracketmath" format="2">
  <advance width="370"/>
  <unicode hex="27E9"/>
  <outline>
    <contour>
      <point x="213" y="556" type="line"/>
      <point x="40" y="-241" type="line"/>
      <point x="78" y="-241" type="line"/>
      <point x="249" y="542" type="line"/>
      <point x="249" y="570" type="line"/>
      <point x="78" y="1352" type="line"/>
      <point x="40" y="1352" type="line"/>
    </contour>
  </outline>
</glyph>
<glyph name="__hookabovecombsmall.case" format="2">
  <advance width="391"/>
  <anchor x="186" y="990" name="_top"/>
  <outline>
    <contour>
      <point x="170" y="1105" type="curve"/>
      <point x="164" y="1133" type="line"/>
      <point x="218" y="1158"/>
      <point x="247" y="1186"/>
      <point x="247" y="1234" type="curve" smooth="yes"/>
      <point x="247" y="1277"/>
      <point x="227" y="1299"/>
      <point x="185" y="1299" type="curve" smooth="yes"/>
      <point x="154" y="1299"/>
      <point x="129" y="1287"/>
      <point x="106" y="1273" type="curve"/>
      <point x="111" y="1304" type="line"/>
      <point x="128" y="1317"/>
      <point x="156" y="1329"/>
      <point x="189" y="1329" type="curve" smooth="yes"/>
      <point x="247" y="1329"/>
      <point x="280" y="1295"/>
      <point x="280" y="1235" type="curve" smooth="yes"/>
      <point x="280" y="1175"/>
      <point x="240" y="1134"/>
    </contour>
  </outline>
</glyph>
<glyph name="__hookabovecombsmall" format="2">
  <advance width="391"/>
  <anchor x="186" y="990" name="_top"/>
  <outline>
    <contour>
      <point x="170" y="1113" type="curve"/>
      <point x="164" y="1141" type="line"/>
      <point x="218" y="1169"/>
      <point x="247" y="1197"/>
      <point x="247" y="1252" type="curve" smooth="yes"/>
      <point x="247" y="1304"/>
      <point x="227" y="1327"/>
      <point x="181" y="1327" type="curve" smooth="yes"/>
      <point x="154" y="1327"/>
      <point x="129" y="1315"/>
      <point x="106" y="1301" type="curve"/>
      <point x="111" y="1332" type="line"/>
      <point x="128" y="1345"/>
      <point x="156" y="1357"/>
      <point x="185" y="1357" type="curve" smooth="yes"/>
      <point x="247" y="1357"/>
      <point x="280" y="1322"/>
      <point x="280" y="1253" type="curve" smooth="yes"/>
      <point x="280" y="1185"/>
      <point x="242" y="1146"/>
    </contour>
  </outline>
</glyph>
<glyph name="_acutecombsmall" format="2">
  <advance width="364"/>
  <anchor x="116" y="990" name="_top"/>
  <outline>
    <contour>
      <point x="211" y="1314" type="line"/>
      <point x="102" y="1116" type="line"/>
      <point x="102" y="1116" type="line"/>
      <point x="133" y="1116" type="line"/>
      <point x="248" y="1314" type="line"/>
      <point x="248" y="1314" type="line"/>
    </contour>
  </outline>
</glyph>
<glyph name="_gravecombsmall.case" format="2">
  <advance width="364"/>
  <anchor x="245" y="990" name="_top"/>
  <outline>
    <contour>
      <point x="153" y="1286" type="line"/>
      <point x="116" y="1286" type="line"/>
      <point x="116" y="1286" type="line"/>
      <point x="231" y="1116" type="line"/>
      <point x="262" y="1116" type="line"/>
      <point x="262" y="1116" type="line"/>
    </contour>
  </outline>
</glyph>
<glyph name="_gravecombsmall" format="2">
  <advance width="364"/>
  <anchor x="247" y="990" name="_top"/>
  <outline>
    <contour>
      <point x="153" y="1314" type="line"/>
      <point x="116" y="1314" type="line"/>
      <point x="116" y="1314" type="line"/>
      <point x="231" y="1116" type="line"/>
      <point x="262" y="1116" type="line"/>
      <point x="262" y="1116" type="line"/>
    </contour>
  </outline>
</glyph>
<glyph name="_tildecombsmall.case" format="2">
  <advance width="541"/>
  <anchor x="280" y="990" name="_top"/>
  <outline>
    <contour>
      <point x="365" y="1160" type="curve" smooth="yes"/>
      <point x="420" y="1160"/>
      <point x="440" y="1190"/>
      <point x="440" y="1246" type="curve" smooth="yes"/>
      <point x="440" y="1273" type="line"/>
      <point x="408" y="1273" type="line"/>
      <point x="408" y="1250" type="line"/>
      <point x="408" y="1206"/>
      <point x="399" y="1190"/>
      <point x="367" y="1190" type="curve" smooth="yes"/>
      <point x="312" y="1190"/>
      <point x="259" y="1269"/>
      <point x="193" y="1269" type="curve" smooth="yes"/>
      <point x="137" y="1269"/>
      <point x="119" y="1237"/>
      <point x="119" y="1182" type="curve" smooth="yes"/>
      <point x="119" y="1157" type="line"/>
      <point x="150" y="1157" type="line"/>
      <point x="150" y="1178" type="line"/>
      <point x="150" y="1222"/>
      <point x="160" y="1239"/>
      <point x="192" y="1239" type="curve" smooth="yes"/>
      <point x="248" y="1239"/>
      <point x="298" y="1160"/>
    </contour>
  </outline>
</glyph>
<glyph name="_tildecombsmall" format="2">
  <advance width="541"/>
  <anchor x="280" y="990" name="_top"/>
  <outline>
    <contour>
      <point x="365" y="1172" type="curve" smooth="yes"/>
      <point x="420" y="1172"/>
      <point x="440" y="1202"/>
      <point x="440" y="1258" type="curve" smooth="yes"/>
      <point x="440" y="1285" type="line"/>
      <point x="408" y="1285" type="line"/>
      <point x="408" y="1262" type="line"/>
      <point x="408" y="1218"/>
      <point x="399" y="1202"/>
      <point x="367" y="1202" type="curve" smooth="yes"/>
      <point x="312" y="1202"/>
      <point x="259" y="1281"/>
      <point x="193" y="1281" type="curve" smooth="yes"/>
      <point x="137" y="1281"/>
      <point x="119" y="1249"/>
      <point x="119" y="1194" type="curve" smooth="yes"/>
      <point x="119" y="1169" type="line"/>
      <point x="150" y="1169" type="line"/>
      <point x="150" y="1190" type="line"/>
      <point x="150" y="1234"/>
      <point x="160" y="1251"/>
      <point x="192" y="1251" type="curve" smooth="yes"/>
      <point x="248" y="1251"/>
      <point x="298" y="1172"/>
    </contour>
  </outline>
</glyph>
<glyph name="brevecomb.case" format="2">
  <anchor x="240" y="1278" name="_top"/>
  <anchor x="240" y="1516" name="top"/>
  <outline>
    <contour>
      <point x="239" y="1382" type="curve" smooth="yes"/>
      <point x="350" y="1382"/>
      <point x="379" y="1460"/>
      <point x="379" y="1579" type="curve"/>
      <point x="348" y="1579" type="line"/>
      <point x="348" y="1475"/>
      <point x="324" y="1413"/>
      <point x="239" y="1413" type="curve" smooth="yes"/>
      <point x="155" y="1413"/>
      <point x="131" y="1475"/>
      <point x="131" y="1579" type="curve"/>
      <point x="100" y="1579" type="line"/>
      <point x="100" y="1460"/>
      <point x="129" y="1382"/>
    </contour>
  </outline>
</glyph>
<glyph name="brevecomb.narrow" format="2">
  <anchor x="239.5" y="990" name="_top"/>
  <anchor x="240" y="1265" name="top"/>
  <outline>
    <contour>
      <point x="239" y="1108" type="curve" smooth="yes"/>
      <point x="341" y="1108"/>
      <point x="359" y="1192"/>
      <point x="359" y="1324" type="curve"/>
      <point x="328" y="1324" type="line"/>
      <point x="328" y="1207"/>
      <point x="315" y="1139"/>
      <point x="239" y="1139" type="curve" smooth="yes"/>
      <point x="163" y="1139"/>
      <point x="151" y="1207"/>
      <point x="151" y="1324" type="curve"/>
      <point x="120" y="1324" type="line"/>
      <point x="120" y="1192"/>
      <point x="137" y="1108"/>
    </contour>
  </outline>
</glyph>
<glyph name="brevecomb_tildecomb.case" format="2">
  <anchor x="240" y="1278" name="_top"/>
  <anchor x="240" y="1516" name="top"/>
  <outline>
    <contour>
      <point x="324" y="1683" type="curve" smooth="yes"/>
      <point x="378" y="1683"/>
      <point x="397" y="1712"/>
      <point x="397" y="1767" type="curve" smooth="yes"/>
      <point x="397" y="1794" type="line"/>
      <point x="366" y="1794" type="line"/>
      <point x="366" y="1771" type="line"/>
      <point x="366" y="1728"/>
      <point x="357" y="1712"/>
      <point x="326" y="1712" type="curve" smooth="yes"/>
      <point x="272" y="1712"/>
      <point x="220" y="1790"/>
      <point x="155" y="1790" type="curve" smooth="yes"/>
      <point x="100" y="1790"/>
      <point x="83" y="1758"/>
      <point x="83" y="1704" type="curve" smooth="yes"/>
      <point x="83" y="1680" type="line"/>
      <point x="113" y="1680" type="line"/>
      <point x="113" y="1700" type="line"/>
      <point x="113" y="1744"/>
      <point x="123" y="1760"/>
      <point x="154" y="1760" type="curve" smooth="yes"/>
      <point x="209" y="1760"/>
      <point x="258" y="1683"/>
    </contour>
    <component base="brevecomb.case"/>
  </outline>
</glyph>
<glyph name="brevecomb_tildecomb" format="2">
  <anchor x="239.5" y="990" name="_top"/>
  <anchor x="240" y="1271" name="top"/>
  <outline>
    <contour>
      <point x="324" y="1450" type="curve" smooth="yes"/>
      <point x="378" y="1450"/>
      <point x="397" y="1479"/>
      <point x="397" y="1534" type="curve" smooth="yes"/>
      <point x="397" y="1560" type="line"/>
      <point x="366" y="1560" type="line"/>
      <point x="366" y="1538" type="line"/>
      <point x="366" y="1495"/>
      <point x="357" y="1479"/>
      <point x="326" y="1479" type="curve" smooth="yes"/>
      <point x="272" y="1479"/>
      <point x="220" y="1556"/>
      <point x="155" y="1556" type="curve" smooth="yes"/>
      <point x="100" y="1556"/>
      <point x="83" y="1525"/>
      <point x="83" y="1471" type="curve" smooth="yes"/>
      <point x="83" y="1447" type="line"/>
      <point x="113" y="1447" type="line"/>
      <point x="113" y="1467" type="line"/>
      <point x="113" y="1510"/>
      <point x="123" y="1527"/>
      <point x="154" y="1527" type="curve" smooth="yes"/>
      <point x="209" y="1527"/>
      <point x="258" y="1450"/>
    </contour>
    <component base="brevecomb"/>
  </outline>
</glyph>
<glyph name="breveinvertedcomb.case" format="2">
  <anchor x="240" y="1278" name="_top"/>
  <anchor x="240" y="1516" name="top"/>
  <outline>
    <contour>
      <point x="239" y="1583" type="curve" smooth="yes"/>
      <point x="129" y="1583"/>
      <point x="100" y="1505"/>
      <point x="100" y="1386" type="curve"/>
      <point x="131" y="1386" type="line"/>
      <point x="131" y="1490"/>
      <point x="155" y="1552"/>
      <point x="239" y="1552" type="curve" smooth="yes"/>
      <point x="324" y="1552"/>
      <point x="348" y="1490"/>
      <point x="348" y="1386" type="curve"/>
      <point x="379" y="1386" type="line"/>
      <point x="379" y="1505"/>
      <point x="350" y="1583"/>
    </contour>
  </outline>
</glyph>
<glyph name="breveinvertedcomb.narrow" format="2">
  <anchor x="239.5" y="990" name="_top"/>
  <anchor x="240" y="1268" name="top"/>
  <outline>
    <contour>
      <point x="239" y="1324" type="curve" smooth="yes"/>
      <point x="137" y="1324"/>
      <point x="120" y="1240"/>
      <point x="120" y="1108" type="curve"/>
      <point x="151" y="1108" type="line"/>
      <point x="151" y="1225"/>
      <point x="163" y="1293"/>
      <point x="239" y="1293" type="curve" smooth="yes"/>
      <point x="315" y="1293"/>
      <point x="328" y="1225"/>
      <point x="328" y="1108" type="curve"/>
      <point x="359" y="1108" type="line"/>
      <point x="359" y="1240"/>
      <point x="341" y="1324"/>
    </contour>
  </outline>
</glyph>
<glyph name="caroncomb.alt" format="2">
  <anchor x="119" y="1278" name="_topright"/>
  <outline>
    <contour>
      <point x="153" y="1278" type="curve"/>
      <point x="119" y="1278" type="line"/>
      <point x="124" y="1243"/>
      <point x="128" y="1210"/>
      <point x="128" y="1179" type="curve" smooth="yes"/>
      <point x="128" y="1067"/>
      <point x="101" y="980"/>
      <point x="56" y="905" type="curve"/>
      <point x="78" y="889" type="line"/>
      <point x="137" y="973"/>
      <point x="161" y="1065"/>
      <point x="161" y="1180" type="curve" smooth="yes"/>
      <point x="161" y="1221"/>
      <point x="155" y="1256"/>
    </contour>
  </outline>
</glyph>
<glyph name="circumflexcomb_tildecomb.case" format="2">
  <anchor x="274" y="1278" name="_top"/>
  <anchor x="274" y="1516" name="top"/>
  <outline>
    <contour>
      <point x="358" y="1683" type="curve" smooth="yes"/>
      <point x="412" y="1683"/>
      <point x="431" y="1712"/>
      <point x="431" y="1767" type="curve" smooth="yes"/>
      <point x="431" y="1794" type="line"/>
      <point x="400" y="1794" type="line"/>
      <point x="400" y="1771" type="line"/>
      <point x="400" y="1728"/>
      <point x="391" y="1712"/>
      <point x="360" y="1712" type="curve" smooth="yes"/>
      <point x="306" y="1712"/>
      <point x="254" y="1790"/>
      <point x="189" y="1790" type="curve" smooth="yes"/>
      <point x="134" y="1790"/>
      <point x="117" y="1758"/>
      <point x="117" y="1704" type="curve" smooth="yes"/>
      <point x="117" y="1680" type="line"/>
      <point x="147" y="1680" type="line"/>
      <point x="147" y="1700" type="line"/>
      <point x="147" y="1744"/>
      <point x="157" y="1760"/>
      <point x="188" y="1760" type="curve" smooth="yes"/>
      <point x="243" y="1760"/>
      <point x="292" y="1683"/>
    </contour>
    <component base="circumflexcomb.case"/>
  </outline>
</glyph>
<glyph name="circumflexcomb_tildecomb" format="2">
  <anchor x="243.5" y="990" name="_top"/>
  <anchor x="244" y="1268" name="top"/>
  <outline>
    <contour>
      <point x="328" y="1447" type="curve" smooth="yes"/>
      <point x="382" y="1447"/>
      <point x="401" y="1476"/>
      <point x="401" y="1531" type="curve" smooth="yes"/>
      <point x="401" y="1557" type="line"/>
      <point x="370" y="1557" type="line"/>
      <point x="370" y="1535" type="line"/>
      <point x="370" y="1492"/>
      <point x="361" y="1476"/>
      <point x="330" y="1476" type="curve" smooth="yes"/>
      <point x="276" y="1476"/>
      <point x="224" y="1553"/>
      <point x="159" y="1553" type="curve" smooth="yes"/>
      <point x="104" y="1553"/>
      <point x="87" y="1522"/>
      <point x="87" y="1468" type="curve" smooth="yes"/>
      <point x="87" y="1444" type="line"/>
      <point x="117" y="1444" type="line"/>
      <point x="117" y="1464" type="line"/>
      <point x="117" y="1507"/>
      <point x="127" y="1524"/>
      <point x="158" y="1524" type="curve" smooth="yes"/>
      <point x="213" y="1524"/>
      <point x="262" y="1447"/>
    </contour>
    <component base="circumflexcomb"/>
  </outline>
</glyph>
<glyph name="commaturnedabovecomb.case" format="2">
  <anchor x="123" y="1278" name="_top"/>
  <anchor x="140" y="1566" name="top"/>
  <outline>
    <contour>
      <point x="104" y="1386" type="curve"/>
      <point x="138" y="1386" type="line"/>
      <point x="136" y="1403"/>
      <point x="135" y="1420"/>
      <point x="135" y="1438" type="curve" smooth="yes"/>
      <point x="135" y="1505"/>
      <point x="150" y="1565"/>
      <point x="181" y="1615" type="curve"/>
      <point x="163" y="1637" type="line"/>
      <point x="118" y="1574"/>
      <point x="101" y="1513"/>
      <point x="101" y="1438" type="curve" smooth="yes"/>
      <point x="101" y="1415"/>
      <point x="103" y="1394"/>
    </contour>
  </outline>
</glyph>
<glyph name="dblgravecomb.case" format="2">
  <anchor x="332" y="1278" name="_top"/>
  <anchor x="230" y="1516" name="top"/>
  <outline>
    <contour>
      <point x="138" y="1589" type="line"/>
      <point x="97" y="1589" type="line"/>
      <point x="97" y="1589" type="line"/>
      <point x="229" y="1386" type="line"/>
      <point x="261" y="1386" type="line"/>
      <point x="261" y="1386" type="line"/>
    </contour>
    <contour>
      <point x="310" y="1589" type="line"/>
      <point x="268" y="1589" type="line"/>
      <point x="268" y="1589" type="line"/>
      <point x="400" y="1386" type="line"/>
      <point x="432" y="1386" type="line"/>
      <point x="432" y="1386" type="line"/>
    </contour>
  </outline>
</glyph>
<glyph name="dblgravecomb.narrow" format="2">
  <anchor x="331" y="990" name="_top"/>
  <anchor x="241" y="1268" name="top"/>
  <outline>
    <contour>
      <point x="209" y="1331" type="line"/>
      <point x="171" y="1331" type="line"/>
      <point x="171" y="1331" type="line"/>
      <point x="242" y="1108" type="line"/>
      <point x="273" y="1108" type="line"/>
      <point x="273" y="1108" type="line"/>
    </contour>
    <contour>
      <point x="356" y="1331" type="line"/>
      <point x="317" y="1331" type="line"/>
      <point x="317" y="1331" type="line"/>
      <point x="388" y="1108" type="line"/>
      <point x="419" y="1108" type="line"/>
      <point x="419" y="1108" type="line"/>
    </contour>
  </outline>
</glyph>
<glyph name="dotaccentcomb.case" format="2">
  <anchor x="130" y="1278" name="_top"/>
  <anchor x="130" y="1536" name="top"/>
  <outline>
    <contour>
      <point x="129" y="1454" type="curve" smooth="yes"/>
      <point x="151" y="1454"/>
      <point x="159" y="1473"/>
      <point x="159" y="1513" type="curve" smooth="yes"/>
      <point x="159" y="1518" type="line" smooth="yes"/>
      <point x="159" y="1558"/>
      <point x="151" y="1576"/>
      <point x="129" y="1576" type="curve" smooth="yes"/>
      <point x="107" y="1576"/>
      <point x="100" y="1558"/>
      <point x="100" y="1518" type="curve" smooth="yes"/>
      <point x="100" y="1513" type="line" smooth="yes"/>
      <point x="100" y="1473"/>
      <point x="107" y="1454"/>
    </contour>
  </outline>
</glyph>
<glyph name="dotbelowcomb.case" format="2">
  <anchor x="130" y="0" name="_bottom"/>
  <anchor x="130" y="-316" name="bottom"/>
  <outline>
    <contour>
      <point x="129" y="-303" type="curve" smooth="yes"/>
      <point x="151" y="-303"/>
      <point x="159" y="-284"/>
      <point x="159" y="-244" type="curve" smooth="yes"/>
      <point x="159" y="-239" type="line" smooth="yes"/>
      <point x="159" y="-199"/>
      <point x="151" y="-181"/>
      <point x="129" y="-181" type="curve" smooth="yes"/>
      <point x="107" y="-181"/>
      <point x="100" y="-199"/>
      <point x="100" y="-239" type="curve" smooth="yes"/>
      <point x="100" y="-244" type="line" smooth="yes"/>
      <point x="100" y="-284"/>
      <point x="107" y="-303"/>
    </contour>
  </outline>
</glyph>
<glyph name="gravecomb.case" format="2">
  <anchor x="321" y="1278" name="_top"/>
  <anchor x="255" y="1516" name="top"/>
  <outline>
    <contour>
      <point x="163" y="1589" type="line"/>
      <point x="117" y="1589" type="line"/>
      <point x="117" y="1589" type="line"/>
      <point x="302" y="1386" type="line"/>
      <point x="339" y="1386" type="line"/>
      <point x="339" y="1386" type="line"/>
    </contour>
  </outline>
</glyph>
<glyph name="horncomb.case" format="2">
  <anchor x="225" y="1278" name="_topright"/>
  <anchor x="277" y="1515" name="topright"/>
  <outline>
    <contour>
      <point x="108" y="1244" type="line"/>
      <point x="212" y="1267"/>
      <point x="263" y="1324"/>
      <point x="263" y="1408" type="curve" smooth="yes"/>
      <point x="263" y="1449"/>
      <point x="256" y="1479"/>
      <point x="246" y="1512" type="curve"/>
      <point x="210" y="1512" type="line"/>
      <point x="220" y="1478"/>
      <point x="227" y="1446"/>
      <point x="227" y="1407" type="curve" smooth="yes"/>
      <point x="227" y="1330"/>
      <point x="181" y="1292"/>
      <point x="98" y="1267" type="curve"/>
    </contour>
  </outline>
</glyph>
<glyph name="horncomb.case_O" format="2">
  <anchor x="203" y="1278" name="_topright"/>
  <anchor x="272" y="1515" name="topright"/>
  <outline>
    <contour>
      <point x="92" y="1235" type="line"/>
      <point x="202" y="1263"/>
      <point x="258" y="1324"/>
      <point x="258" y="1411" type="curve" smooth="yes"/>
      <point x="258" y="1451"/>
      <point x="251" y="1480"/>
      <point x="241" y="1512" type="curve"/>
      <point x="205" y="1512" type="line"/>
      <point x="215" y="1479"/>
      <point x="222" y="1448"/>
      <point x="222" y="1410" type="curve" smooth="yes"/>
      <point x="222" y="1329"/>
      <point x="171" y="1290"/>
      <point x="82" y="1258" type="curve"/>
    </contour>
  </outline>
</glyph>
<glyph name="horncomb_o" format="2">
  <anchor x="205" y="989" name="_topright"/>
  <anchor x="271" y="1234" name="topright"/>
  <outline>
    <contour>
      <point x="86" y="959" type="line"/>
      <point x="206" y="975"/>
      <point x="262" y="1038"/>
      <point x="262" y="1128" type="curve" smooth="yes"/>
      <point x="262" y="1169"/>
      <point x="255" y="1199"/>
      <point x="245" y="1232" type="curve"/>
      <point x="209" y="1232" type="line"/>
      <point x="219" y="1198"/>
      <point x="226" y="1166"/>
      <point x="226" y="1127" type="curve" smooth="yes"/>
      <point x="226" y="1044"/>
      <point x="175" y="1001"/>
      <point x="76" y="982" type="curve"/>
    </contour>
  </outline>
</glyph>
<glyph name="hungarumlautcomb.case" format="2">
  <anchor x="197" y="1278" name="_top"/>
  <anchor x="299" y="1516" name="top"/>
  <outline>
    <contour>
      <point x="391" y="1589" type="line"/>
      <point x="268" y="1386" type="line"/>
      <point x="268" y="1386" type="line"/>
      <point x="300" y="1386" type="line"/>
      <point x="432" y="1589" type="line"/>
      <point x="432" y="1589" type="line"/>
    </contour>
    <contour>
      <point x="219" y="1589" type="line"/>
      <point x="97" y="1386" type="line"/>
      <point x="97" y="1386" type="line"/>
      <point x="129" y="1386" type="line"/>
      <point x="261" y="1589" type="line"/>
      <point x="261" y="1589" type="line"/>
    </contour>
  </outline>
</glyph>
<glyph name="hungarumlautcomb.narrow" format="2">
  <anchor x="201" y="990" name="_top"/>
  <anchor x="278" y="1268" name="top"/>
  <outline>
    <contour>
      <point x="320" y="1331" type="line"/>
      <point x="256" y="1108" type="line"/>
      <point x="256" y="1108" type="line"/>
      <point x="287" y="1108" type="line"/>
      <point x="358" y="1331" type="line"/>
      <point x="358" y="1331" type="line"/>
    </contour>
    <contour>
      <point x="173" y="1331" type="line"/>
      <point x="110" y="1108" type="line"/>
      <point x="110" y="1108" type="line"/>
      <point x="141" y="1108" type="line"/>
      <point x="212" y="1331" type="line"/>
      <point x="212" y="1331" type="line"/>
    </contour>
  </outline>
</glyph>
<glyph name="ogonekcomb.case" format="2">
  <anchor x="320" y="0" name="_ogonek"/>
  <outline>
    <contour>
      <point x="240" y="-323" type="curve" smooth="yes"/>
      <point x="265" y="-323"/>
      <point x="296" y="-316"/>
      <point x="312" y="-305" type="curve"/>
      <point x="318" y="-272" type="line"/>
      <point x="293" y="-285"/>
      <point x="270" y="-290"/>
      <point x="245" y="-290" type="curve" smooth="yes"/>
      <point x="193" y="-290"/>
      <point x="159" y="-260"/>
      <point x="159" y="-202" type="curve" smooth="yes"/>
      <point x="159" y="-201" type="line" smooth="yes"/>
      <point x="159" y="-129"/>
      <point x="202" y="-69"/>
      <point x="265" y="0" type="curve"/>
      <point x="265" y="6" type="line"/>
      <point x="233" y="3" type="line"/>
      <point x="233" y="3" type="line"/>
      <point x="175" y="-59"/>
      <point x="123" y="-123"/>
      <point x="123" y="-206" type="curve" smooth="yes"/>
      <point x="123" y="-207" type="line" smooth="yes"/>
      <point x="123" y="-278"/>
      <point x="166" y="-323"/>
    </contour>
  </outline>
</glyph>
<glyph name="periodcentered.loclCAT.case" format="2">
  <outline>
    <contour>
      <point x="-119" y="613" type="curve" smooth="yes"/>
      <point x="-97" y="613"/>
      <point x="-89" y="632"/>
      <point x="-89" y="672" type="curve" smooth="yes"/>
      <point x="-89" y="680" type="line" smooth="yes"/>
      <point x="-89" y="720"/>
      <point x="-97" y="738"/>
      <point x="-119" y="738" type="curve" smooth="yes"/>
      <point x="-141" y="738"/>
      <point x="-148" y="720"/>
      <point x="-148" y="680" type="curve" smooth="yes"/>
      <point x="-148" y="672" type="line" smooth="yes"/>
      <point x="-148" y="632"/>
      <point x="-141" y="613"/>
    </contour>
  </outline>
</glyph>
<glyph name="periodcentered.loclCAT" format="2">
  <advance width="19"/>
  <outline>
    <contour>
      <point x="9" y="613" type="curve" smooth="yes"/>
      <point x="31" y="613"/>
      <point x="39" y="632"/>
      <point x="39" y="672" type="curve" smooth="yes"/>
      <point x="39" y="680" type="line" smooth="yes"/>
      <point x="39" y="720"/>
      <point x="31" y="738"/>
      <point x="9" y="738" type="curve" smooth="yes"/>
      <point x="-13" y="738"/>
      <point x="-20" y="720"/>
      <point x="-20" y="680" type="curve" smooth="yes"/>
      <point x="-20" y="672" type="line" smooth="yes"/>
      <point x="-20" y="632"/>
      <point x="-13" y="613"/>
    </contour>
  </outline>
</glyph>
